<?xml version="1.0" encoding="utf-8"?>
<!-- Generator: Adobe Illustrator 22.0.1, SVG Export Plug-In . SVG Version: 6.00 Build 0)  -->
<svg version="1.1" id="Layer_1" xmlns="http://www.w3.org/2000/svg" xmlns:xlink="http://www.w3.org/1999/xlink" x="0px" y="0px"
	 viewBox="0 0 512.3 72.3" style="enable-background:new 0 0 512.3 72.3;" xml:space="preserve">
<g>
	<path d="M405.7,46.9l0.8,3.6c0.1,0.3,0.2,0.6,0.4,0.7c0.2,0.1,0.5,0.1,0.8,0c0.3-0.1,0.6-0.2,0.7-0.4c0.1-0.2,0.1-0.4,0.1-0.8
		l-0.6-2.6l-1.6-0.6C406.1,46.8,405.9,46.8,405.7,46.9z"/>
	<path d="M405.7,38.3c0.1,0,0.1,0.1,0.1,0.1l-0.1-0.5c-0.1-0.2-0.2-0.4-0.3-0.6c-0.1-0.1-0.3-0.2-0.5-0.3c-0.2-0.1-0.4,0-0.6,0
		c-0.2,0.1-0.3,0.2-0.5,0.4c0.1,0.1,0.3,0.1,0.4,0.2L405.7,38.3z"/>
	<path d="M402.3,42.4l-1.2-0.8c0,0,0,0,0,0c-0.2,0-0.3-0.1-0.5-0.2l-0.8,1l2,0.8L402.3,42.4z"/>
	<polygon points="405.4,44.5 405.1,44.1 405.2,44.4 	"/>
	<path d="M405,39.6l-0.6-0.3l1.8,2.8c0.2-0.6,0.2-1,0.1-1.4C406.1,40.2,405.6,39.9,405,39.6z"/>
	<path d="M397.5,47.1c-0.1,0.3-0.3,0.5-0.5,0.6s-0.5,0.1-0.8-0.1c-0.2-0.1-0.4-0.2-0.5-0.3c-0.1,0.2-0.1,0.3-0.1,0.5
		c0,0.2,0.2,0.4,0.4,0.7c0.3,0.2,0.5,0.3,0.8,0.3c0.2,0,0.4-0.2,0.7-0.4l1.9-2.3c-0.4-0.2-0.9-0.4-1.3-0.6L397.5,47.1z"/>
	<path d="M400.3,44.5c0.1,0,0.2,0.1,0.3,0.1l0,0l-1.3-0.5C399.6,44.2,399.9,44.4,400.3,44.5z"/>
	<path d="M407,43.4l0-0.1c0,0,0,0-0.1,0L407,43.4z"/>
	<path d="M141.5,41.2C141.5,41.2,141.5,41.2,141.5,41.2c0.3-0.2,0.4-0.3,0.4-0.5c0,0,0-0.1,0-0.1c-0.4,0-0.8,0-1.2,0L141.5,41.2z"/>
	<path d="M381,41c0.2,0.1,0.3,0.3,0.5,0.4l2.8-1.7l-1.1-1.1c-0.1-0.1-0.2-0.2-0.2-0.4l-2.8,1.7l0,0.1C380.4,40.4,380.7,40.7,381,41z
		"/>
	<path d="M385.5,36.7l-0.9,0.5l3.3-0.4C387,36.7,386.3,36.7,385.5,36.7z"/>
	<path d="M385.7,38.5c0.1-0.1,0.1-0.1,0.2-0.2l-1.1,0.1l0.5,0.5L385.7,38.5z"/>
	<path d="M380.1,45.5c0-0.2,0.1-0.5,0.3-0.7l0.5-0.6l-1.1-1.7l0.2-0.1c0,0,0,0-0.1-0.1c-0.2-0.2-0.5-0.4-0.7-0.7l-0.9,1.8l2.2,3.6
		c0.2,0.3,0.3,0.4,0.5,0.4c0.2,0,0.4,0,0.7-0.2c0.3-0.2,0.4-0.4,0.5-0.5c0-0.1,0-0.3-0.1-0.4l-1.7-0.4
		C380.2,45.8,380.1,45.7,380.1,45.5z"/>
	<path d="M0,26.6"/>
	<path d="M0,30"/>
	<path d="M0,22.7"/>
	<path d="M0,25"/>
	<path d="M355.8,42.6l0.5,2c0,0,0,0.1,0,0.1l1.7-1.1l-1.1-1.8L355.8,42.6z"/>
	<path d="M353.3,44.1L347,48l-2.4-3.8c-0.2-0.3-0.3-0.4-0.5-0.5c-0.1,0-0.1,0-0.2,0l3.1,6.6c0.1,0,0.2-0.1,0.3-0.1l6.6-4.1
		c-0.2-0.2-0.3-0.4-0.4-0.8L353.3,44.1z"/>
	<polygon points="359.2,40.5 360.3,42.3 361.2,41.7 360.6,39.6 	"/>
	<path d="M362.9,36.3L362.9,36.3L362.9,36.3C362.9,36.3,362.9,36.3,362.9,36.3z"/>
	<path d="M363.7,40.2l0.5-0.3c0.3-0.2,0.4-0.3,0.5-0.5c0-0.2,0-0.4-0.2-0.7l-0.5-0.8c-0.3,0-0.6-0.1-0.9-0.2L363.7,40.2z"/>
	<path d="M271.1,37.2l-1.5,0.4c0.1,0.1,0.1,0.2,0.2,0.3l0.8,0.9c0.1,0,0.2,0.1,0.3,0.1c0.9-0.2,1.7-0.4,2.6-0.5L271.1,37.2z"/>
	<path d="M268.3,37.8c-0.2-0.1-0.3-0.3-0.4-0.7c0-0.1,0-0.2,0-0.3c-0.2,0-0.3,0.1-0.5,0.1c-0.1,0.1-0.1,0.3-0.1,0.4
		c0.1,0.1,0.2,0.1,0.2,0.2c0.3,0.2,0.7,0.4,1,0.5C268.4,37.9,268.4,37.8,268.3,37.8C268.3,37.8,268.3,37.8,268.3,37.8z"/>
	<path d="M333.7,38.7c0.4,0,0.9,0.1,1.3,0c0,0,0-0.1,0-0.1l-1.8-0.7C333.4,38.2,333.6,38.5,333.7,38.7z"/>
	<path d="M334.5,41.5c0.2,0.1,0.4,0.1,0.6,0c0-0.1-0.1-0.2-0.1-0.3c0-0.2,0-0.5,0-0.7c-0.5,0-0.9,0-1.4-0.1c0,0.2,0,0.5,0,0.7
		c0,0,0,0,0,0C334,41.3,334.3,41.4,334.5,41.5z"/>
	<path d="M332.7,45.3c-0.4,0.8-0.9,1.5-1.4,2.1c-0.5,0.6-1.1,1.1-1.7,1.6c-0.6,0.4-1.2,0.8-1.8,1.1c-0.1,0.1-0.2,0.2-0.2,0.4
		c0,0.2,0,0.4,0.1,0.6c0.1,0.2,0.2,0.3,0.3,0.4c0.1,0.1,0.3,0.1,0.5,0.1c0.7-0.3,1.4-0.7,2.1-1.2c0.7-0.5,1.4-1.1,2-1.8
		c0.6-0.7,1.2-1.6,1.6-2.5c0.4-0.9,0.7-1.9,0.9-3c-0.5,0-1.1-0.1-1.6-0.4C333.4,43.5,333.1,44.5,332.7,45.3z"/>
	<path d="M504.3,28.9c0.1-0.2,0.2-0.4,0.3-0.6c-0.1-0.1-0.3-0.2-0.4-0.5c-0.1-0.2-0.2-0.4-0.3-0.6c-0.2,0.2-0.4,0.5-0.7,0.7
		c0.1,0.5,0.3,1,0.5,1.4C504,29.3,504.2,29.1,504.3,28.9z"/>
	<path d="M500.9,29.6c-0.1,0.1-0.2,0.2-0.2,0.3c0,0.2,0,0.3,0.1,0.5c0.1,0.2,0.2,0.3,0.3,0.4c0.1,0.1,0.3,0.1,0.4,0.1
		c0.3-0.1,0.5-0.2,0.8-0.4c-0.2-0.4-0.4-0.9-0.6-1.3C501.5,29.3,501.2,29.4,500.9,29.6z"/>
	<path d="M477.8,20.6l0.4,0c0-0.1,0-0.3,0-0.5C478.1,20.3,478,20.4,477.8,20.6z"/>
	<path d="M29.2,42.3c0-0.1,0.1-0.3,0.3-0.4l0.5-0.4l0.1-0.3c0-0.1,0.1-0.2,0.1-0.3c0-0.1-0.1-0.1-0.1-0.2l-0.1-0.4l-0.5-0.1h-2.1
		c-0.4,0-0.6,0.2-0.7,0.5l-1.4,6c-0.1,0.3,0,0.5,0.1,0.7c0.2,0.2,0.4,0.2,0.7,0.2c0.5,0,0.8-0.2,1-0.6l2.2-4.4c0,0,0,0,0,0
		C29.3,42.6,29.2,42.4,29.2,42.3z"/>
	<path d="M70.2,32.3c-0.1-0.1-0.2-0.1-0.4-0.2c-0.1,0-0.2,0-0.3,0l0.1,0.2c0,0.1,0.1,0.1,0.1,0.2l0.4-0.1
		C70.2,32.3,70.2,32.3,70.2,32.3z"/>
	<path d="M296.5,60.8c-0.1-0.1-0.3,0-0.5,0.1l-3.2,1.5l-6.5-13.9l3.2-1.5c0.2-0.1,0.4-0.2,0.4-0.4c0-0.1,0-0.3-0.1-0.6
		c-0.1-0.2-0.2-0.4-0.4-0.4c-0.1-0.1-0.3,0-0.5,0.1l-4,1.9c-0.2,0.1-0.4,0.2-0.4,0.4c0,0.1,0,0.3,0.1,0.6l7.1,15.2
		c0.1,0.2,0.2,0.4,0.4,0.4c0.1,0.1,0.3,0,0.5-0.1l4-1.9c0.2-0.1,0.4-0.2,0.4-0.4c0-0.1,0-0.3-0.1-0.6
		C296.8,61,296.6,60.8,296.5,60.8z"/>
	<path d="M493.4,32.5c0.1-0.2,0.1-0.4,0.1-0.6c0-0.2-0.1-0.4-0.2-0.5c-0.1-0.1-0.2-0.2-0.4-0.2c-0.7,0.1-1.5,0.2-2.4,0.5
		c-0.8,0.3-1.7,0.7-2.5,1.2c-0.8,0.5-1.6,1.2-2.3,1.9c-0.7,0.8-1.4,1.7-1.9,2.8c-0.5,1.1-0.9,2.2-1,3.2c-0.2,1.1-0.2,2.1-0.1,3.1
		c0.1,1,0.3,1.9,0.6,2.7c0.3,0.8,0.7,1.6,1.1,2.2c0.1,0.2,0.3,0.2,0.4,0.2c0.2,0,0.4-0.1,0.5-0.2c0.2-0.1,0.3-0.2,0.4-0.4
		c0.1-0.2,0.1-0.3,0-0.4c-0.3-0.6-0.7-1.2-0.9-1.9c-0.3-0.7-0.5-1.5-0.5-2.3c-0.1-0.8-0.1-1.7,0.1-2.6c0.1-0.9,0.4-1.8,0.9-2.8
		c0.5-1,1-1.8,1.6-2.4c0.6-0.7,1.3-1.2,2-1.7c0.7-0.4,1.4-0.8,2.1-1c0.7-0.2,1.4-0.4,2.1-0.5C493.2,32.8,493.3,32.7,493.4,32.5z"/>
	<path d="M307,50.7c-0.4-0.1-0.7,0-0.9,0.3l-3.7,4.3c-0.1,0.2-0.2,0.3-0.2,0.5c0,0.2,0.1,0.3,0.3,0.3l1.9,0.5c0.3,0.1,0.5,0,0.7-0.3
		l2.4-4.7c0.1-0.2,0.1-0.4,0-0.6C307.5,50.8,307.3,50.7,307,50.7z"/>
	<path d="M303,49.8c-0.1-0.2-0.3-0.3-0.5-0.4c-0.4-0.1-0.7,0-0.9,0.3l-3.7,4.3c-0.1,0.2-0.2,0.3-0.2,0.5c0,0.2,0.1,0.3,0.3,0.3
		l1.9,0.5c0.3,0.1,0.5,0,0.7-0.3l2.4-4.7C303.1,50.2,303.1,50,303,49.8z"/>
	<path d="M473,52.1c-0.1-0.2-0.2-0.3-0.3-0.4c-0.1-0.1-0.3-0.1-0.5-0.1c-0.2,0-0.3,0.1-0.4,0.2c-0.1,0.1-0.2,0.2-0.3,0.4l-3.3,9
		c-0.1,0.2-0.1,0.4,0,0.6c0.1,0.2,0.2,0.3,0.5,0.4c0.3,0.1,0.5,0.1,0.6,0c0.2-0.1,0.3-0.2,0.4-0.5l2.8-7.8l4.4,7
		c0.1,0.2,0.3,0.4,0.5,0.4c0.2,0,0.4,0,0.6-0.2c0.2-0.2,0.4-0.3,0.4-0.5c0-0.2,0-0.4-0.1-0.6L473,52.1z"/>
	<path d="M346.7,50.4c-0.2,0-0.3-0.2-0.5-0.5l-3-4.9c-0.2-0.3-0.2-0.5-0.2-0.7c0-0.2,0.2-0.4,0.5-0.5c0.2-0.1,0.3-0.2,0.5-0.2l0-0.1
		c-0.1-0.2-0.2-0.4-0.4-0.4c-0.2-0.1-0.4,0-0.6,0.1c-0.3,0.1-0.4,0.3-0.5,0.4c-0.1,0.2,0,0.4,0.1,0.6l3.6,7.5l-8.1-1.9
		c-0.3-0.1-0.5,0-0.6,0.1s-0.2,0.3-0.3,0.6c-0.1,0.3,0,0.5,0.1,0.6c0.1,0.1,0.3,0.2,0.5,0.3l9.4,2.1c0.2,0,0.4,0,0.5,0
		c0.1,0,0.3-0.1,0.4-0.3c0.1-0.1,0.2-0.3,0.2-0.4c0-0.1,0-0.3-0.1-0.5l-0.9-2C346.9,50.4,346.8,50.4,346.7,50.4z"/>
	<path d="M466,35.6c-0.7-0.2-1.6,0-2.5,0.6l-1.6,0.9c-0.5,0.3-1,0.4-1.5,0.3c-0.4-0.1-0.8-0.4-1.1-1c-0.1-0.2-0.2-0.3-0.3-0.3
		c-0.1,0-0.3,0-0.5,0.1c-0.2,0.1-0.3,0.2-0.3,0.3c0,0.1,0,0.3,0.1,0.4c0.3,0.5,0.4,1,0.3,1.5c-0.1,0.4-0.5,0.8-1,1.1l-1.3,0.7
		c-0.9,0.6-1.5,1.2-1.7,1.9c-0.2,0.7,0,1.5,0.5,2.4c0.1,0.2,0.2,0.3,0.3,0.3c0.1,0,0.3,0,0.5-0.1c0.2-0.1,0.3-0.2,0.3-0.3
		c0-0.1,0-0.3-0.1-0.4c-0.3-0.6-0.4-1-0.3-1.5c0.1-0.4,0.5-0.8,1.2-1.2l1.2-0.7c0.5-0.3,0.8-0.6,1-1c0.2-0.4,0.4-0.8,0.4-1.3
		c0.4,0.2,0.9,0.3,1.3,0.3c0.5,0,0.9-0.2,1.4-0.4l1.6-0.9c0.7-0.4,1.2-0.6,1.6-0.5c0.4,0.1,0.8,0.4,1.1,0.9c0.1,0.2,0.2,0.3,0.3,0.3
		c0.1,0,0.3,0,0.5-0.1c0.2-0.1,0.3-0.2,0.3-0.3c0-0.1,0-0.3-0.1-0.4C467.3,36.3,466.7,35.8,466,35.6z"/>
	<path d="M359.4,45.7c0.2,0.4,0.5,0.6,0.7,0.6c0.3,0.1,0.6,0,1-0.3c0.4-0.3,0.6-0.5,0.7-0.8c0.1-0.3,0-0.6-0.2-0.9l-1.3-2.1
		l-2.2,1.4L359.4,45.7z"/>
	<path d="M0,0v22.7l15.1-9.3c0.3-0.2,0.5-0.2,0.7-0.2c0.2,0,0.3,0.2,0.5,0.4l2.9,4.6c0.2,0.3,0.2,0.5,0.2,0.6c0,0.2-0.2,0.4-0.5,0.5
		c-0.3,0.2-0.5,0.2-0.7,0.2s-0.3-0.2-0.5-0.4l-2.3-3.7L0,25v1.5l1.6,2.6c0.2,0.3,0.2,0.5,0.2,0.6s-0.2,0.4-0.5,0.5
		c-0.3,0.2-0.5,0.2-0.7,0.2c-0.2,0-0.3-0.2-0.5-0.4L0,30v15c0,0,0,0,0,0l2.6-0.7C2.8,44.1,3,44,3,43.8c0-0.1,0-0.2,0-0.4l0.8,0.5
		c1.1,0.7,1.7,1.4,1.9,2.1c0.2,0.7,0.1,1.6-0.5,2.5C5,48.9,5,49.1,5,49.3c0.1,0.2,0.2,0.4,0.5,0.6c0.3,0.2,0.5,0.3,0.7,0.2
		c0.2,0,0.4-0.2,0.5-0.5c0.8-1.5,1.1-2.9,0.8-4.2c-0.3-1.3-1.2-2.4-2.7-3.4l-2-1.3c-0.9-0.6-1.4-1.2-1.6-1.9
		c-0.2-0.6-0.1-1.3,0.3-2.1c0.8,0.4,1.6,0.8,2.5,1c1,0.3,2.1,0.4,3.3,0.3c1-0.1,2-0.3,2.8-0.6c0.3,0.2,0.6,0.4,0.9,0.4
		c0.4,0.1,0.9,0,1.4-0.1l-1.2,4.7c-0.1,0.5-0.1,0.8,0,1s0.4,0.4,0.9,0.6c0.5,0.1,0.8,0.1,1,0c0.2-0.1,0.4-0.4,0.5-0.9l1.3-5.2
		l1.7,1.1l-3,5.3c-0.2,0.4-0.3,0.7-0.2,0.9c0.1,0.3,0.3,0.5,0.7,0.8c0.4,0.3,0.7,0.4,0.9,0.3c0.2-0.1,0.5-0.3,0.7-0.6l3.8-6.7
		c0.2-0.4,0.3-0.7,0.2-0.9c-0.1-0.3-0.3-0.5-0.7-0.8l-0.8-0.5l2.3-0.6l-2.1,8.4c-0.1,0.5-0.1,0.8,0,1c0.1,0.2,0.4,0.4,0.9,0.6
		c0.5,0.1,0.8,0.1,1,0c0.2-0.1,0.4-0.4,0.5-0.9l1.3-5.3c0.1,0.1,0.1,0.2,0.2,0.2c0.2,0.2,0.4,0.2,0.6,0.2s0.3-0.2,0.4-0.4l0.2-0.4
		l5.7,0.7h0.2c0.2,0,0.4,0.1,0.4,0.2c0,0.1,0,0.2,0,0.3c0.1,0.1,0.1,0.2,0.2,0.3l-0.4,0.3l-0.7,1.4c0.1,0.2,0.3,0.3,0.4,0.4
		c0.1,0,0.3,0,0.5-0.1l3.4-2.4c0.2-0.1,0.3-0.2,0.3-0.4c0,0.3,0,0.6,0,0.9c0.1,0.3,0.2,0.6,0.3,0.8c0.2,0.2,0.3,0.5,0.6,0.6
		c0.2,0.2,0.5,0.3,0.8,0.3c0.2,0,0.4,0,0.6,0c-0.1,0.1-0.1,0.2-0.1,0.3c0,0.1,0.1,0.3,0.3,0.5c0.2,0.2,0.4,0.3,0.5,0.3
		c0.1,0,0.3-0.1,0.5-0.3c0.5-0.6,1.1-0.9,1.6-0.9c0.5,0,1.2,0.3,1.9,1l1.3,1.2c0.5,0.4,1,0.7,1.6,0.9c0.6,0.1,1.1,0.1,1.7-0.1
		c-0.1,0.3-0.1,0.6,0,0.9l-3.1,2.2c-0.3,0.2-0.4,0.4-0.4,0.6c0,0.2,0,0.5,0.2,0.8c0.2,0.3,0.4,0.4,0.6,0.5c0.2,0,0.4,0,0.7-0.2
		l2.9-2.1c0.1,0.2,0.3,0.4,0.5,0.5l1.7,1.5c0.7,0.6,1.1,1.2,1.2,1.8c0.1,0.5-0.2,1.1-0.7,1.7c-0.2,0.2-0.2,0.3-0.2,0.5
		c0,0.1,0.1,0.3,0.3,0.5c0.2,0.2,0.4,0.3,0.5,0.3c0.1,0,0.3-0.1,0.5-0.3c0.8-0.9,1.2-1.9,1.2-2.8c0-0.9-0.6-1.9-1.6-2.8L48,47.9
		c-0.1-0.1-0.2-0.2-0.3-0.3l5-3.5c0.2-0.1,0.3-0.3,0.4-0.4c0-0.1,0.1-0.2,0.1-0.3l6,2.3c0.2,0.1,0.4,0.1,0.5,0
		c0.1-0.1,0.2-0.2,0.3-0.4c0.1-0.2,0.1-0.4,0.1-0.5c-0.1-0.1-0.2-0.2-0.4-0.3l-7-2.7c-0.1-0.1-0.3-0.1-0.4-0.1l1.5-1.2c0,0,0,0,0,0
		c-0.1,0.2-0.1,0.4-0.1,0.6c0,0.1,0.2,0.3,0.4,0.4l3.7,1.9c0.2,0.1,0.4,0.1,0.5,0.1c0.1-0.1,0.2-0.2,0.3-0.4l3.2-7.5
		c0.1,0,0.1,0,0.2,0l2.7-0.6c1,0.7,1.8,1.5,2.6,2.4c0.1,0.1,0.1,0.1,0.2,0.2L65.8,41c-0.1,0.2-0.1,0.4-0.1,0.6
		c0.1,0.2,0.2,0.3,0.4,0.4c0.2,0.1,0.4,0.1,0.5,0.1c0.1-0.1,0.3-0.2,0.4-0.4l1.4-3c0.4,0.5,0.8,1.1,1.1,1.6c0.1,0.2,0.4,0.3,0.7,0.3
		c0.3,0,0.6-0.2,0.9-0.4c0.3-0.2,0.5-0.4,0.7-0.7c0.1-0.2,0.1-0.3,0.1-0.5l0.6,1c0.5,0.9,1.1,1.4,1.7,1.5c0.3,0.1,0.5,0,0.8,0l0,0.5
		c0,0.5,0.3,0.7,0.8,0.7c0.2,0,0.4-0.1,0.6-0.2c0.1-0.1,0.2-0.2,0.2-0.4c0.3,0.1,0.6,0.1,1,0.2c0.5,0,1,0.1,1.5,0
		c0.1,0.2,0.3,0.3,0.5,0.5c0.4,0.3,0.7,0.4,0.9,0.3c0.2-0.1,0.5-0.3,0.7-0.6l0.3-0.6c0.4-0.1,0.7-0.3,1.1-0.4l0.7,0.4
		c0.2,0.7,0,1.5-0.5,2.4c-0.2,0.3-0.2,0.5-0.2,0.7c0.1,0.2,0.2,0.4,0.5,0.6c0.3,0.2,0.5,0.3,0.7,0.2c0.2,0,0.4-0.2,0.5-0.5
		c0.5-0.9,0.8-1.8,0.9-2.6c0,0,0,0,0,0c0.1-0.1,0.2-0.2,0.3-0.4l2-4.7c0.1,0,0.2-0.1,0.3-0.2c0.1-0.2,0.2-0.4,0.1-0.6l0-0.1l0,0
		l1,2.7c0,0,0,0-0.1,0c-0.2,0.1-0.3,0.2-0.3,0.4s0,0.4,0.1,0.6c0.1,0.2,0.2,0.4,0.3,0.5c0.1,0.1,0.3,0.2,0.4,0.1c0,0,0.1,0,0.1,0
		l1.6,4.2c0.1,0.3,0.3,0.5,0.4,0.6c0.2,0.1,0.4,0.1,0.7-0.1c0.3-0.1,0.5-0.3,0.6-0.5c0.1-0.2,0.1-0.4-0.1-0.7l-1.5-4
		c0.1,0,0.1,0,0.2-0.1c0,0,0,0,0.1,0l4.8,2.5c-1.1,1.2-1.7,2.3-1.7,3.5c-0.1,1.3,0.4,2.6,1.5,3.9c0.2,0.3,0.4,0.4,0.6,0.4
		c0.2,0,0.4-0.1,0.7-0.4c0.3-0.3,0.4-0.5,0.4-0.7c0-0.2-0.1-0.4-0.3-0.7c-0.7-0.8-1-1.6-0.9-2.4c0.1-0.8,0.6-1.6,1.5-2.5l0.1-0.1
		l2.4,1.3c0.3,0.1,0.5,0.2,0.7,0.1c0.1,0,0.2-0.1,0.2-0.2c0.3,0.5,0.5,1,0.7,1.5c0.3,0.8,0.5,1.6,0.6,2.4c0,0.3,0.1,0.6,0.1,0.9v8
		c0,0.3,0,0.5,0.1,0.6s0.3,0.2,0.5,0.2h4c0.2,0,0.4-0.1,0.5-0.2c0.1-0.1,0.1-0.3,0.1-0.6c0-0.3,0-0.5-0.1-0.6
		c-0.1-0.1-0.3-0.2-0.5-0.2h-3.2v-5.4c0.1-0.1,0.2-0.2,0.2-0.4c0.1-0.8,0-1.7-0.1-2.6c0-0.1,0-0.3-0.1-0.4v-5.1l0.1,0.5
		c0,0.2,0.1,0.3,0.3,0.4c0,0,0.1,0,0.1,0c0,0.1,0,0.2,0,0.3l0.3,2.2c0,0.2,0.1,0.3,0.3,0.4c0.2,0,0.3,0,0.5-0.1l4.9-3.6
		c0.3-0.2,0.4-0.6,0.4-1c0-0.3-0.1-0.5-0.3-0.6c-0.2-0.1-0.4-0.1-0.6,0l-3.9,1.6l3.8-2.8c0.3-0.2,0.4-0.6,0.4-1
		c0-0.3-0.1-0.5-0.3-0.6c-0.2-0.1-0.4-0.1-0.6,0l-0.9,0.4l0.8-0.6c0.3,0.1,0.7,0.1,1,0.2l2.3,5.2c0.1,0.1,0.1,0.3,0.2,0.4l-0.9,3.6
		c-0.1,0.5,0,0.8,0.4,0.9l1.7,0.4c0.4,0.1,0.6-0.1,0.7-0.6l0.6-5.5c0.1,0.3,0.2,0.6,0.4,0.9c0.3,0.5,1.3,0.7,2.4,0.8
		c-0.3,1.1-0.5,2.2-0.6,3.3c-0.1,0.5-0.1,1-0.1,1.5c-0.4,0-0.7-0.2-1.1-0.6c-0.1-0.1-0.2-0.2-0.3-0.2c-0.1,0-0.2,0.1-0.3,0.2
		c-0.1,0.2-0.2,0.3-0.2,0.4c0,0.1,0.1,0.2,0.2,0.4c0.4,0.4,0.6,0.8,0.6,1.2c0,0.4-0.2,0.8-0.5,1.3l-0.8,1c-0.6,0.8-0.9,1.5-0.9,2.2
		c0,0.7,0.4,1.4,1,2c0.1,0.1,0.2,0.2,0.3,0.2c0.1,0,0.2-0.1,0.3-0.2c0.1-0.2,0.2-0.3,0.2-0.4c0-0.1-0.1-0.2-0.2-0.4
		c-0.2-0.2-0.4-0.4-0.5-0.6s-0.2-0.4-0.1-0.6c0-0.2,0.1-0.4,0.2-0.7s0.3-0.5,0.5-0.8l0.8-1c0.3-0.4,0.5-0.8,0.6-1.2
		c0.1-0.4,0.1-0.9,0-1.3c0.1,0,0.2,0,0.2,0c0,0.7,0,1.3,0.1,1.9h0c-0.2,0-0.3,0.1-0.4,0.2c-0.1,0.2,0,0.3,0.1,0.6l0.7,1.6
		c0.2,0.9,0.4,1.7,0.6,2.4c0.1,0.3,0.3,0.5,0.6,0.6c0,0,0.1,0,0.1,0l0.5,1.2c0.2,0.4,0.5,0.6,0.9,0.6c0.3,0,0.5-0.1,0.6-0.2
		c0.1-0.2,0.2-0.4,0.1-0.6l-0.4-1.7c0.1-0.2,0.1-0.4,0.1-0.6c-0.3-1.2-0.6-2.4-0.8-3.8c-0.2-1.3-0.2-2.6,0-4l0.2-0.2
		c0.2-0.3,0.4-0.5,0.6-0.6c0.2-0.1,0.4-0.2,0.6-0.3c0.2,0,0.4,0,0.6,0.1c0.2,0.1,0.4,0.2,0.6,0.4c0.1,0.1,0.2,0.2,0.3,0.2
		c0.1,0,0.2-0.1,0.3-0.2c0.1-0.2,0.2-0.3,0.2-0.4c0-0.1-0.1-0.2-0.2-0.4c-0.6-0.6-1.3-0.9-1.9-0.9c-0.3,0-0.7,0.1-1,0.4
		c0.1-0.7,0.3-1.3,0.5-2c0.3,0,0.5,0,0.5,0l0.5-0.2l2,3.6c0.1,0.2,0.3,0.4,0.4,0.4c0.1,0,0.3,0,0.5-0.1l0.8-0.5c0.1,0,0.1,0,0.2-0.1
		c0.1,0,0.1-0.1,0.2-0.2l2.3-1.6c0.2-0.1,0.3-0.3,0.3-0.4c0-0.1,0-0.3-0.2-0.6c-0.1-0.2-0.3-0.4-0.4-0.4c-0.1,0-0.2,0-0.2,0l0.3-0.4
		c0.1-0.1,0.3-0.1,0.5-0.1l0.5-0.1c0.1,0.1,0.1,0.2,0.2,0.3c0.5,0.8,1,1.6,1.3,2.4c0.3,0.8,0.5,1.6,0.6,2.4c0.1,0.8,0.2,1.6,0.1,2.3
		c0,0.2,0.1,0.3,0.2,0.4c0.2,0.1,0.3,0.1,0.5,0.2c0.2,0,0.4,0,0.5-0.1c0.2-0.1,0.2-0.2,0.3-0.4c0.1-0.7,0-1.6-0.1-2.4l9.1,6.6
		c-0.3,0.4-0.6,0.7-1,1c-0.7,0.7-1.5,1.2-2.2,1.6s-1.5,0.6-2.3,0.7c-0.7,0.1-1.5,0.2-2.2,0.1c-0.7-0.1-1.3-0.2-1.9-0.4
		c-0.1,0-0.3,0-0.4,0.2c-0.1,0.1-0.2,0.3-0.3,0.5c-0.1,0.2-0.1,0.4,0,0.6c0,0.2,0.1,0.3,0.3,0.4c0.6,0.2,1.4,0.4,2.2,0.5
		c0.8,0.1,1.7,0,2.5-0.1c0.9-0.1,1.8-0.4,2.7-0.9c0.9-0.4,1.8-1,2.6-1.8c0.5-0.4,0.9-0.9,1.2-1.4l0.6,0.4c0.4,0.3,0.7,0.4,0.9,0.3
		c0.3-0.1,0.5-0.3,0.8-0.7c0.3-0.4,0.4-0.8,0.3-1.1c0-0.3-0.2-0.6-0.6-0.8l-0.6-0.4c0.2-0.5,0.4-1,0.6-1.6c0.3-0.9,0.4-1.8,0.4-2.7
		c0-0.5,0-1.1,0-1.5l1.8,1.3l4.1,6.4c0.2,0.4,0.5,0.6,0.7,0.6c0.2,0,0.5-0.1,0.9-0.4l8.3-6.4c0,0,0.1,0.1,0.1,0.1
		c0.1,0.1,0.3,0.2,0.4,0.2c0.1,0,0.2-0.1,0.3-0.2c0,0,0.1-0.1,0.1-0.1v0.3c0,1.5,0.3,2.7,1,3.4c0.6,0.6,1.5,1,2.5,1.1
		c0.1,0.1,0.1,0.2,0.2,0.3c0.6,0.6,1.2,1.1,1.8,1.5c0.2,0.1,0.3,0.1,0.4,0c0.1-0.1,0.3-0.2,0.4-0.4c0.1-0.2,0.2-0.4,0.2-0.5
		c0-0.2,0-0.3-0.1-0.4c-0.5-0.4-1-0.8-1.5-1.3c-0.1-0.1-0.1-0.1-0.2-0.2c0-0.1-0.1-0.2-0.1-0.3c-0.1-0.1-0.2-0.1-0.3-0.1
		c-0.3-0.4-0.6-0.7-0.8-1.2c-0.2-0.4-0.4-0.9-0.6-1.4c0.2,0,0.3-0.1,0.4-0.3c0.3-0.7,0.5-1.6,0.6-2.5c0.1-0.5,0.1-1,0.1-1.5l0.8-0.6
		c0,0,0,0,0,0c0,0.2,0,0.4,0.1,0.5c0.1,0.1,0.3,0.2,0.5,0.3c0.2,0.1,0.4,0.1,0.6,0c0.2,0,0.3-0.1,0.3-0.3c0.2-0.6,0.4-1.2,0.7-1.8
		c0.3,0,0.5-0.1,0.8-0.2l-1,4c-0.1,0.5,0,0.8,0.4,0.9l1.7,0.4c0.4,0.1,0.6-0.1,0.7-0.6l0.5-4.3l0.6,1.7c0.1,0.2,0.2,0.4,0.3,0.4
		c0.1,0,0.2,0,0.4,0c0,0,0,0,0,0c0.1,0.2,0.3,0.3,0.4,0.3c0.1,0,0.2,0,0.3-0.1l0.1,0.6c0,0.2,0.1,0.3,0.3,0.4c0.2,0,0.3,0,0.5-0.1
		l1.8-1.3c0.3,0.2,0.6,0.3,0.8,0.2c0.3-0.1,0.5-0.3,0.8-0.7c0.2-0.4,0.3-0.7,0.3-0.9l0.5-0.4l0.6,0.4c0,0.3,0.1,0.6,0.4,0.9
		c0.3,0.4,0.6,0.7,0.9,0.7c0.3,0.1,0.6,0,0.9-0.2l1.9,1.3c0.2,0.1,0.4,0.2,0.6,0.1c0.2,0,0.3-0.2,0.3-0.4l0.1-0.6
		c0.1,0.1,0.2,0.1,0.3,0.1c0.1,0,0.3-0.1,0.5-0.3c0,0,0,0,0,0c0.2,0,0.3,0,0.4,0c0.1-0.1,0.2-0.2,0.3-0.4l0.6-1.7l0.5,4.3
		c0.1,0.5,0.3,0.7,0.7,0.6l1.9-0.4c0.4-0.1,0.6-0.4,0.5-0.9l-1.1-3.9c0,0,0.1,0,0.1,0c0.2-0.1,0.3-0.2,0.5-0.3c0,0,0,0,0,0.1
		c0.4,0.7,0.7,1.4,0.9,2.1c0,0.1,0.1,0.2,0.2,0.2c0,0.5,0,0.9,0.1,1.4c0.1,0.9,0.3,1.8,0.5,2.5c0.1,0.2,0.2,0.3,0.4,0.3
		s0.4,0,0.5-0.1c0.2-0.1,0.4-0.2,0.5-0.3s0.2-0.3,0.1-0.4c-0.2-0.7-0.3-1.4-0.4-2.3c-0.1-0.6-0.1-1.2,0-1.8l2.6,1.8
		c-0.1,0.7-0.2,1.4-0.4,2.1c-0.3,0.9-0.6,1.7-1.1,2.3c-0.3,0.4-0.6,0.8-0.9,1.2c-0.1,0-0.2,0.1-0.3,0.1c-0.1,0.1-0.1,0.2-0.1,0.3
		c-0.1,0.1-0.1,0.1-0.2,0.2c-0.6,0.5-1.1,1-1.7,1.3c-0.1,0.1-0.2,0.2-0.1,0.4c0,0.2,0.1,0.4,0.2,0.5c0.1,0.2,0.2,0.3,0.4,0.4
		c0.2,0.1,0.3,0.1,0.5,0c0.6-0.4,1.3-0.9,1.9-1.5c0.1-0.1,0.2-0.2,0.2-0.3c1.2-0.1,2.1-0.4,2.8-1.1c0.8-0.7,1.1-1.9,1.1-3.4v-0.3
		c0,0,0.1,0.1,0.1,0.1c0.1,0.1,0.2,0.2,0.4,0.2c0.1,0,0.2-0.1,0.4-0.2c0.1-0.1,0.1-0.1,0.1-0.1l9.1,6.4c0.4,0.3,0.7,0.4,1,0.4
		c0.3,0,0.5-0.2,0.8-0.6l4.5-6.4l1.9-1.3c0,0.5-0.1,1,0,1.5c0,0.9,0.2,1.8,0.5,2.7c0.2,0.5,0.4,1,0.6,1.6l-0.7,0.4
		c-0.4,0.3-0.6,0.5-0.7,0.8c-0.1,0.3,0.1,0.6,0.4,1.1c0.3,0.4,0.6,0.7,0.9,0.7c0.3,0.1,0.6,0,1-0.3l0.6-0.4c0.4,0.5,0.8,0.9,1.4,1.4
		c0.9,0.8,1.9,1.4,2.9,1.8c1,0.4,2,0.7,2.9,0.9c1,0.1,1.9,0.2,2.8,0.1c0.9-0.1,1.7-0.2,2.4-0.5c0.2-0.1,0.3-0.2,0.3-0.4s0-0.4,0-0.6
		c-0.1-0.2-0.2-0.4-0.3-0.5c-0.1-0.1-0.3-0.2-0.4-0.2c-0.7,0.2-1.4,0.3-2.1,0.4c-0.8,0.1-1.6,0-2.4-0.1c-0.8-0.1-1.6-0.4-2.5-0.7
		s-1.7-0.9-2.5-1.6c-0.4-0.3-0.7-0.7-1.1-1l9.9-6.6c-0.1,0.9-0.2,1.7-0.1,2.4c0,0.2,0.1,0.4,0.3,0.4c0.2,0.1,0.4,0.1,0.6,0.1
		c0.2,0,0.4-0.1,0.6-0.2c0.2-0.1,0.3-0.2,0.3-0.4c0-0.7,0-1.5,0.2-2.3c0.1-0.8,0.3-1.6,0.7-2.4c0.3-0.8,0.8-1.6,1.4-2.4
		c0.1-0.1,0.1-0.2,0.2-0.3l0.6,0.1c0.2,0,0.4,0.1,0.5,0.1l0.3,0.4c-0.1,0-0.2,0-0.3,0c-0.1,0-0.3,0.2-0.4,0.4
		c-0.1,0.2-0.2,0.4-0.2,0.6c0,0.1,0.2,0.3,0.4,0.4l2.5,1.6c0.1,0.1,0.2,0.2,0.2,0.2c0.1,0,0.1,0,0.2,0.1l0.8,0.5
		c0.2,0.1,0.4,0.2,0.5,0.1c0.1,0,0.3-0.2,0.4-0.4l2.2-3.6l0.6,0.2c0,0,0.2,0,0.5,0c0.2,0.7,0.4,1.3,0.6,2c-0.4-0.2-0.8-0.4-1.1-0.4
		c-0.7,0-1.4,0.3-2.1,0.9c-0.1,0.1-0.2,0.2-0.2,0.4c0,0.1,0.1,0.2,0.2,0.4c0.1,0.2,0.3,0.2,0.4,0.2c0.1,0,0.2-0.1,0.4-0.2
		c0.2-0.2,0.4-0.4,0.7-0.4c0.2-0.1,0.4-0.1,0.6-0.1c0.2,0,0.4,0.1,0.7,0.3c0.2,0.1,0.5,0.4,0.7,0.6l0.2,0.2c0.1,1.4,0.1,2.7,0,4
		c-0.2,1.4-0.5,2.7-0.8,3.8c-0.1,0.2,0,0.4,0.1,0.6l-0.4,1.7c-0.1,0.3,0,0.5,0.1,0.6c0.2,0.2,0.4,0.2,0.7,0.2c0.4,0,0.8-0.2,0.9-0.6
		l0.6-1.2c0,0,0.1,0,0.1,0c0.3,0,0.5-0.2,0.7-0.6c0.3-0.7,0.5-1.6,0.7-2.4l0.8-1.6c0.1-0.2,0.1-0.4,0.1-0.6
		c-0.1-0.2-0.2-0.2-0.4-0.2h0c0.1-0.6,0.1-1.3,0.1-1.9c0.1,0,0.2,0,0.3,0c-0.1,0.4-0.1,0.9,0,1.3c0.1,0.4,0.3,0.8,0.7,1.2l0.9,1
		c0.2,0.3,0.4,0.5,0.6,0.8c0.1,0.2,0.2,0.5,0.2,0.7s0,0.4-0.2,0.6c-0.1,0.2-0.3,0.4-0.5,0.6c-0.1,0.1-0.2,0.2-0.2,0.4
		s0.1,0.2,0.2,0.4c0.1,0.2,0.3,0.2,0.4,0.2c0.1,0,0.2-0.1,0.4-0.2c0.7-0.6,1.1-1.3,1.1-2c0-0.7-0.3-1.4-1-2.2l-0.9-1
		c-0.4-0.4-0.6-0.9-0.6-1.3c0-0.4,0.2-0.8,0.7-1.2c0.1-0.1,0.2-0.2,0.2-0.4c0-0.1-0.1-0.2-0.2-0.4c-0.1-0.2-0.3-0.2-0.4-0.2
		c-0.1,0-0.2,0.1-0.4,0.2c-0.4,0.4-0.8,0.6-1.2,0.6c0-0.5-0.1-1-0.1-1.5c-0.1-1.1-0.4-2.2-0.7-3.3c1.1-0.1,2.2-0.3,2.6-0.8
		c0.2-0.3,0.3-0.5,0.5-0.9l0.7,5.5c0.1,0.5,0.3,0.7,0.7,0.6l1.9-0.4c0.4-0.1,0.6-0.4,0.5-0.9l-1-3.6c0.1-0.1,0.2-0.2,0.2-0.4
		l2.6-5.2c0.4-0.1,0.8-0.1,1.1-0.2l0.9,0.6l-1-0.4c-0.3-0.1-0.5-0.1-0.7,0c-0.2,0.1-0.3,0.3-0.3,0.6c-0.1,0.4,0.1,0.8,0.4,1l4.1,2.8
		l-4.3-1.6c-0.3-0.1-0.5-0.1-0.7,0c-0.2,0.1-0.3,0.3-0.3,0.6c-0.1,0.4,0.1,0.8,0.4,1l5.3,3.6c0.2,0.1,0.4,0.2,0.6,0.1
		c0.2,0,0.3-0.2,0.3-0.4l0.3-2.2c0-0.1,0-0.2,0-0.3c0,0,0.1,0,0.1,0c0.2,0,0.3-0.2,0.3-0.4l0.1-0.5v5.1c0,0.1-0.1,0.3-0.1,0.4
		c-0.1,0.9-0.2,1.8-0.1,2.6c0,0.2,0.1,0.3,0.2,0.4v5.4h-3.5c-0.2,0-0.4,0.1-0.5,0.2c-0.1,0.1-0.2,0.3-0.2,0.6c0,0.3,0.1,0.5,0.2,0.6
		c0.1,0.1,0.3,0.2,0.5,0.2h4.4c0.2,0,0.4-0.1,0.5-0.2s0.2-0.3,0.2-0.6v-8c0-0.3,0.1-0.6,0.1-0.9c0.1-0.8,0.3-1.6,0.7-2.4
		c0.2-0.5,0.5-1,0.8-1.5c0.1,0.1,0.2,0.1,0.3,0.2c0.2,0.1,0.4,0,0.7-0.1L269,44l0.2,0.1c1,0.9,1.6,1.7,1.7,2.5
		c0.1,0.8-0.2,1.6-1,2.4c-0.2,0.3-0.3,0.5-0.3,0.7c0,0.2,0.2,0.4,0.5,0.7c0.3,0.3,0.5,0.4,0.7,0.4c0.2,0,0.4-0.1,0.7-0.4
		c1.2-1.3,1.7-2.6,1.7-3.9c-0.1-1.2-0.7-2.4-1.9-3.5l5.2-2.5c0,0,0,0,0.1,0c0.1,0,0.2,0,0.2,0.1l-1.7,4c-0.1,0.3-0.1,0.5-0.1,0.7
		c0.1,0.2,0.3,0.4,0.6,0.5c0.3,0.1,0.6,0.1,0.8,0.1c0.2-0.1,0.4-0.3,0.5-0.6l1.7-4.2c0,0,0.1,0,0.1,0c0.1,0.1,0.3,0,0.4-0.1
		c0.2-0.1,0.3-0.3,0.4-0.5c0.1-0.2,0.1-0.4,0.1-0.6s-0.1-0.3-0.3-0.4c0,0,0,0-0.1,0l1.1-2.7l0,0l0,0.1c-0.1,0.3,0,0.5,0.1,0.6
		c0.1,0.1,0.2,0.1,0.3,0.2l2.2,4.7c0.1,0.2,0.2,0.4,0.4,0.4c0,0,0,0,0.1,0c0.1,0.8,0.4,1.7,1,2.6c0.2,0.3,0.4,0.5,0.6,0.5
		c0.2,0,0.5,0,0.8-0.2c0.3-0.2,0.5-0.4,0.6-0.6c0.1-0.2,0-0.5-0.2-0.7c-0.5-0.9-0.7-1.7-0.5-2.4l0.8-0.4c0.4,0.2,0.8,0.3,1.2,0.4
		l0.4,0.6c0.2,0.4,0.5,0.6,0.7,0.6c0.3,0.1,0.6,0,1-0.3c0.2-0.2,0.4-0.3,0.5-0.5c0.5,0,1.1,0,1.6,0c0.4,0,0.7-0.1,1.1-0.2
		c0,0.2,0.1,0.3,0.2,0.4c0.1,0.1,0.4,0.2,0.6,0.2c0.5,0,0.8-0.2,0.9-0.7l0-0.5c0.3,0.1,0.6,0.1,0.9,0c0.7-0.1,1.3-0.6,1.9-1.5l0.7-1
		c0,0.2,0,0.3,0.1,0.5c0.2,0.3,0.4,0.5,0.7,0.7c0.3,0.2,0.6,0.3,1,0.4c0.3,0,0.6,0,0.7-0.3c0.4-0.5,0.8-1.1,1.2-1.6l1.5,3
		c0.1,0.2,0.2,0.4,0.4,0.4c0.2,0.1,0.4,0,0.6-0.1c0.2-0.1,0.4-0.3,0.5-0.4c0.1-0.2,0-0.3-0.1-0.6l-1.8-3.5c0.1-0.1,0.1-0.1,0.2-0.2
		c0.8-0.9,1.8-1.7,2.8-2.4l2.9,0.6c0.1,0,0.2,0,0.2,0l3.5,7.5c0.1,0.2,0.2,0.4,0.4,0.4c0.1,0.1,0.3,0,0.5-0.1l4-1.9
		c0.2-0.1,0.4-0.2,0.4-0.4c0-0.1,0-0.3-0.1-0.6c0,0,0,0,0,0l2.6,1.8c0.3,0.2,0.6,0.3,0.8,0.4c0,0.1,0.1,0.1,0.2,0.2
		c0.3,0.3,0.5,0.4,0.7,0.4c0.2,0,0.4-0.1,0.7-0.4c0.5-0.6,0.9-1.1,1.1-1.7c0.6-0.4,1.3-0.8,2-1.4c0.3-0.3,0.7-0.6,1-0.9c0,0,0,0,0,0
		c0.2-0.2,0.3-0.4,0.5-0.6l-0.6,1.5c-0.1,0.3-0.1,0.5-0.1,0.7c0.1,0.2,0.3,0.4,0.6,0.5c0.3,0.1,0.6,0.1,0.8,0.1
		c0.2-0.1,0.4-0.3,0.5-0.6l0.6-1.5c0,0,0,0,0,0.1c0.2,0.2,0.6,0.4,1,0.4c0.2,0.1,0.4,0.2,0.7,0.3c0.1,0.2,0.3,0.4,0.4,0.6
		c0.2,0.2,0.4,0.3,0.7,0.3c0.3,0,0.7-0.2,1-0.4c0.2,0,0.4,0,0.6,0.1c0-0.3,0-0.5-0.1-0.8c-0.1-0.9-0.4-1.7-0.7-2.4s-0.7-1.4-1.2-2
		c-0.5-0.6-0.9-1.1-1.4-1.6c-0.1-0.1-0.1-0.2-0.1-0.4c0-0.2,0.1-0.3,0.3-0.5c0.1-0.2,0.3-0.3,0.4-0.3c0.2-0.1,0.3,0,0.5,0.1
		c0.6,0.5,1.1,1,1.7,1.7c0.5,0.7,1,1.5,1.4,2.3c0.3,0.6,0.5,1.4,0.7,2.1l0.3,0.1c-0.1,0-0.2,0-0.3,0c0,0.2,0.1,0.4,0.1,0.6
		c0.2,1,0.2,2.1,0,3.3c0,0.1,0,0.1,0,0.2c0.2,0,0.3,0,0.4,0c0.2,0,0.3-0.1,0.5-0.2c0.2,0.1,0.5,0.2,0.7,0.3c0.3,0.1,0.6,0.1,0.9,0
		c0.3-0.1,0.6-0.2,0.8-0.3c0.3-0.2,0.5-0.4,0.6-0.6c0.2-0.2,0.3-0.5,0.3-0.8c0.1-0.3,0.1-0.6,0-0.9c0,0.1,0.1,0.3,0.3,0.4l3.7,2.4
		c0.2,0.1,0.4,0.2,0.5,0.1c0.1,0,0.3-0.2,0.4-0.4c0.1-0.2,0.2-0.4,0.2-0.6c0-0.1-0.1-0.3-0.4-0.4l-1-0.7c0.1-0.1,0.2-0.2,0.3-0.4
		l0.1-0.4l6.8-0.8l0.2,0.4c0.1,0.2,0.3,0.4,0.5,0.4c0.2,0,0.4,0,0.6-0.2c0.1-0.1,0.2-0.1,0.3-0.2l1.1,4.1l2.5-1.5l-1.7-6.4l2.5,0.6
		l-0.8,0.5c-0.4,0.3-0.6,0.5-0.7,0.8c-0.1,0.3,0,0.6,0.2,0.9l1.8,2.8l2.2-1.4l-0.9-1.4l1.8-1.1l0.5,1.7l1.7-1.1l-2.4-3.8
		c-0.2-0.3-0.2-0.5-0.2-0.7c0-0.2,0.2-0.4,0.5-0.5c0.3-0.2,0.5-0.2,0.7-0.2s0.3,0.2,0.5,0.5l1.5,2.4l0,0c0.1,0.1,0.3,0.1,0.4,0.2
		c-0.1,0-0.2-0.1-0.4-0.2l1,1.6c0.2,0,0.4,0,0.6,0c0.3-0.1,0.7-0.2,1-0.4c1,0.3,2,0.5,3.1,0.6c1.3,0.1,2.5,0,3.6-0.3
		c1-0.2,1.9-0.6,2.8-1c0.4,0.8,0.5,1.5,0.3,2.1c-0.2,0.7-0.8,1.4-1.7,1.9l-2.2,1.3c-1.6,1-2.6,2.1-2.9,3.4c-0.3,1.3,0,2.7,0.9,4.2
		c0.2,0.3,0.4,0.5,0.6,0.5c0.2,0,0.5,0,0.8-0.2c0.3-0.2,0.5-0.4,0.6-0.6c0.1-0.2,0-0.5-0.2-0.7c-0.6-1-0.7-1.8-0.5-2.5
		c0.2-0.7,0.9-1.4,2.1-2.1l0.9-0.5c-0.1,0.1-0.1,0.2-0.1,0.4c0,0.2,0.2,0.4,0.5,0.4l2.8,0.7c0.5,0.1,0.8,0,1-0.4l0.6-1.1l-0.6-1
		c-0.2-0.3-0.2-0.5-0.2-0.6c0-0.2,0.2-0.4,0.5-0.5l2.1-1.3l0.5-1c0.5-0.1,1-0.3,1.4-0.6l0.9-0.5c0,0,0,0,0,0c-0.1,0.2-0.1,0.3,0,0.4
		c0,0,0,0,0,0l1.7-1l-0.8,0.1l1-0.6c0,0,0.1,0,0.1-0.1c0.2,0,0.4,0,0.5,0l10.2-6.3c0.3-0.2,0.5-0.2,0.7-0.2c0.2,0,0.3,0.2,0.5,0.4
		l2.9,4.6c0.2,0.3,0.2,0.5,0.2,0.6c0,0.2-0.2,0.4-0.5,0.5c-0.3,0.2-0.5,0.2-0.7,0.2s-0.3-0.2-0.5-0.4l-2.3-3.7l-11.6,7.1l0.2,0.2
		l-1.9,2.2c-0.4-0.2-0.7-0.5-1.1-0.7l-1.5,0.9c0.5,0.4,1,0.8,1.5,1.1l-0.6,0.7l1.2,2c0.1,0.1,0.1,0.2,0.1,0.2l1.1,0.3
		c0.5,0.1,0.8,0,1-0.4l0.7-1.4c0.2,0.1,0.5,0.1,0.7,0.1c1,0.1,1.9,0.2,2.8,0.1c0.9-0.1,1.7-0.2,2.4-0.5c0.2-0.1,0.3-0.2,0.3-0.4
		c0-0.2,0-0.4,0-0.6c-0.1-0.2-0.2-0.4-0.3-0.5c-0.1-0.1-0.3-0.2-0.4-0.2c-0.2,0.1-0.5,0.1-0.7,0.2l-2.6-2.5l0.6-1.2
		c0.2-0.3,0.2-0.6,0.1-0.9c-0.1-0.2-0.3-0.4-0.6-0.5l2.7-0.3c0.1,0.1,0.2,0.2,0.3,0.2c0.2,0,0.5,0,0.8-0.2c0.1,0,0.2-0.1,0.2-0.1
		l0.6-0.1c0.2,0,0.4-0.1,0.5-0.2c0.1-0.1,0.1-0.3,0.1-0.5c0.6,0,1.1,0,1.7,0c0.1,0.1,0.1,0.1,0.2,0.2l3.8,2.5l-0.7,1.8l-2.1-0.8
		c0,0,0,0,0,0c-0.3-0.4-0.5-0.7-0.7-1.1c-0.1-0.1-0.2-0.2-0.4-0.2c-0.2,0-0.4,0.1-0.6,0.2c-0.2,0.1-0.3,0.2-0.5,0.4
		c-0.1,0.2-0.1,0.3,0,0.5c0.2,0.5,0.5,0.9,0.9,1.4l-1.4,3.7c-0.1,0.3-0.1,0.5,0,0.6c0.1,0.1,0.2,0.3,0.5,0.4
		c0.3,0.1,0.5,0.1,0.6,0.1c0.2-0.1,0.3-0.2,0.4-0.5l1.1-2.9c0.4,0.4,0.8,0.7,1.2,1.1l-0.7,2.1c-0.1,0.3-0.1,0.5,0,0.7
		c0,0.1,0.1,0.1,0.1,0.2c0-0.1,0.1-0.2,0.1-0.2l3.9-4.8l-0.5-0.2l0.5-1.4c0.1,0.2,0.3,0.3,0.5,0.5c0.1,0.1,0.2,0.1,0.3,0.2l3.2-3.9
		c0,0,0,0,0,0c-0.2-0.1-0.4-0.2-0.6-0.4c-0.1-0.1-0.2-0.2-0.3-0.3c1.7-0.1,3.5-0.2,5.3-0.3c0.3,0.1,0.6,0.3,0.8,0.3l-2.1,0.6
		c-0.2,0.1-0.4,0.2-0.5,0.3c-0.1,0.2-0.1,0.4-0.1,0.6c0.1,0.5,0.4,0.8,0.9,0.7L417,38c0.1,0,0.1,0,0.2,0l-1.8,2.2
		c-0.1,0.2-0.2,0.3-0.2,0.5c0,0.1,0,0.1,0.1,0.2c-0.1,0.2-0.2,0.3-0.3,0.4c-0.2,0.2-0.4,0.3-0.6,0.4c-0.1,0-0.1,0-0.2,0
		c0-0.1,0-0.2,0-0.3c-0.1-0.2-0.2-0.3-0.4-0.5c-0.2-0.1-0.4-0.2-0.6-0.2c-0.2,0-0.3,0-0.4,0.1c-0.1,0.2-0.3,0.3-0.4,0.5l-1.7-0.8
		c-0.5-0.2-1.1-0.3-1.6-0.3c-0.5,0-1,0.2-1.4,0.5c-0.1-0.5-0.3-1-0.6-1.4c-0.3-0.4-0.7-0.7-1.2-0.9l1.1,4.9c0,0,0,0,0,0
		c0.1,0,0.2-0.2,0.3-0.4c0.3-0.7,0.7-1.1,1.1-1.2c0.5-0.2,1-0.1,1.7,0.2l1.2,0.5c0,0-0.1,0.1-0.1,0.1c-0.6,0.6-1.3,1-2.1,1.5
		c-0.4,0.2-0.9,0.4-1.3,0.6l-0.7-1.2l0.9,4l3.4,1.3l-1.4,3.6c-0.1,0.3-0.1,0.5,0,0.6c0.1,0.1,0.2,0.3,0.5,0.4
		c0.3,0.1,0.5,0.1,0.6,0.1c0.2-0.1,0.3-0.2,0.4-0.5l1.8-4.6c0.1-0.3,0.1-0.5,0-0.6c-0.1-0.1-0.2-0.3-0.5-0.4l-3.6-1.4
		c0.3-0.1,0.6-0.3,0.8-0.4c0.9-0.5,1.7-1.1,2.4-1.7c0.3-0.3,0.5-0.5,0.8-0.8c0.6,0.1,1.2,0.1,1.7-0.1c0.8-0.3,1.4-1,1.9-2
		c0.1-0.1,0.1-0.2,0.1-0.3l4.1-5.1l0.7,2.9l-1.1,4.9c-0.1,0.5,0,0.9,0.2,1.2c0.3,0.3,0.7,0.4,1.2,0.4c0.8,0,1.4-0.3,1.7-1l3.6-7.4
		l4.4,9.3c0.1,0.2,0.2,0.4,0.4,0.4c0.1,0.1,0.3,0,0.5-0.1l4-1.9c0.2-0.1,0.4-0.2,0.4-0.4c0-0.1,0-0.3-0.1-0.6
		c-0.1-0.2-0.2-0.4-0.4-0.4c-0.1-0.1-0.3,0-0.5,0.1l-3.2,1.5l-3.7-7.8l1.3,0.3c0.2,0.1,0.4,0.1,0.6,0c0,0.3,0,0.6,0.1,0.9
		c0.1,1,0.3,1.9,0.6,2.7c0.3,0.8,0.7,1.6,1.1,2.2c0.1,0.2,0.3,0.2,0.4,0.2c0.2,0,0.4-0.1,0.5-0.2c0.2-0.1,0.3-0.2,0.4-0.4
		c0.1-0.2,0.1-0.3,0-0.4c-0.3-0.6-0.7-1.2-0.9-1.9c-0.3-0.7-0.5-1.5-0.5-2.3c-0.1-0.8-0.1-1.7,0.1-2.6c0.1-0.9,0.4-1.8,0.8-2.7
		c1.2-0.3,2.4-0.7,3.5-1.1l0.5,0.5l-2.9,1.8c-0.4,0.3-0.6,0.5-0.7,0.8c-0.1,0.3,0,0.6,0.2,0.9l0.4,0.7l-0.7,0.8
		c-0.2,0.2-0.3,0.5-0.3,0.7c0,0.2,0.2,0.4,0.5,0.4l2,0.5l2.2,3.6c0.2,0.4,0.5,0.6,0.7,0.6c0.3,0.1,0.6,0,1-0.3
		c0.4-0.3,0.6-0.5,0.7-0.8c0.1-0.3,0-0.6-0.2-0.9l-2.1-3.4l1.6-3l3.8,3.9c0.3,0.3,0.6,0.5,0.9,0.5c0.3,0,0.6-0.2,1-0.5
		c0.4-0.4,0.6-0.7,0.6-1c0-0.3-0.1-0.6-0.5-0.9l-3.7-3.8l0.2-0.1c0,0,0,0,0,0c0.5,0.1,0.9,0.4,1.4,0.9l1.3,1.6
		c0.8,1,1.5,1.5,2.4,1.6c0.8,0.1,1.7-0.2,2.6-0.9c0.2-0.1,0.3-0.3,0.3-0.4c0-0.1-0.1-0.3-0.2-0.5c-0.1-0.2-0.3-0.3-0.4-0.3
		c-0.1,0-0.3,0-0.5,0.2c-0.3,0.2-0.6,0.4-0.8,0.5s-0.5,0.1-0.8,0.1c-0.2-0.1-0.5-0.2-0.7-0.4c-0.2-0.2-0.5-0.5-0.8-0.8l-1.2-1.6
		c-0.3-0.4-0.6-0.7-1-0.9l3-1.9l2.3,2.3l-0.1,0.3c-0.1,0.5,0,0.9,0.2,1.2c0.3,0.3,0.7,0.4,1.2,0.4c0.8,0,1.4-0.3,1.7-1l0.4-0.7l0,0
		c-0.1,0.3-0.1,0.5,0,0.7c0.1,0.2,0.3,0.4,0.6,0.5c0,0,0,0,0.1,0c0.2,0.6,0.4,1.3,0.8,2c0.2,0.3,0.4,0.5,0.6,0.5
		c0.2,0,0.5,0,0.8-0.2c0.3-0.2,0.5-0.4,0.6-0.6c0.1-0.2,0-0.5-0.2-0.7c-0.6-1-0.7-1.8-0.5-2.5c0,0,0,0,0,0l5.4,3.6
		c0.4,0.3,0.7,0.2,1-0.2l1-1.7c0.2-0.4,0.1-0.7-0.4-0.9l-5.5-2.6c0.2-0.1,0.4-0.3,0.6-0.4l0.4-0.2l2.7,0c0.2,0,0.3,0,0.4-0.1
		c0.1-0.1,0.2-0.2,0.3-0.3c0.1-0.1,0.1-0.2,0.1-0.3l2,3.3c0.2,0.3,0.4,0.4,0.6,0.5c0.2,0,0.5,0,0.8-0.2c0.3-0.2,0.5-0.4,0.5-0.6
		c0-0.2,0-0.4-0.2-0.7l-3.2-5c0.2-0.5,0.3-1,0.3-1.5c0.2,0.1,0.4,0.2,0.6,0.3l0.6,1c-0.1,0.1-0.1,0.2-0.1,0.4c0,0.2,0.2,0.4,0.5,0.4
		l0.1,0l0.1,0.1c0.1,0.2,0.2,0.3,0.4,0.4c0,0.1,0.1,0.2,0.2,0.3c0.7,0.4,1.5,0.8,2.4,1.1c0.4,0.1,0.8,0.2,1.3,0.3
		c0,0.6,0,1.2,0.1,1.8c0.1,1,0.3,1.9,0.6,2.7c0.3,0.8,0.7,1.6,1.1,2.2c0.1,0.2,0.3,0.2,0.4,0.2c0.2,0,0.4-0.1,0.5-0.2
		c0.2-0.1,0.3-0.2,0.4-0.4c0.1-0.2,0.1-0.3,0-0.4c-0.3-0.6-0.7-1.2-0.9-1.9c-0.3-0.7-0.5-1.5-0.5-2.3c0-0.4-0.1-0.9,0-1.4
		c0.9,0.1,1.9,0,2.9-0.1c0.6,0.6,1.3,1,1.9,1.1c0.8,0.1,1.7-0.2,2.6-0.9c0.2-0.1,0.3-0.3,0.3-0.4s-0.1-0.3-0.2-0.5
		c-0.1-0.2-0.3-0.3-0.4-0.3c-0.1,0-0.3,0-0.5,0.2c-0.3,0.2-0.6,0.4-0.8,0.5c-0.3,0.1-0.5,0.1-0.8,0.1c-0.1,0-0.2-0.1-0.4-0.1
		c0.7-0.2,1.3-0.5,2-0.9c1.1-0.6,2.1-1.3,2.9-2.1c0.8-0.8,1.4-1.7,2-2.5l0.2,0.1c-0.4,0.9-0.7,1.8-0.8,2.7c-0.2,1.1-0.2,2.1-0.1,3.1
		c0.1,1,0.3,1.9,0.6,2.7c0.3,0.8,0.7,1.6,1.1,2.2c0.1,0.2,0.3,0.2,0.4,0.2c0.2,0,0.4-0.1,0.5-0.2c0.2-0.1,0.3-0.2,0.4-0.4
		c0.1-0.2,0.1-0.3,0-0.4c-0.3-0.6-0.7-1.2-0.9-1.9c-0.3-0.7-0.5-1.5-0.5-2.3c-0.1-0.8-0.1-1.7,0.1-2.6c0.1-0.7,0.3-1.3,0.6-2
		l2.6,1.7c0.1,0.6,0.4,1.2,1,1.8c0.1,0.1,0.3,0.2,0.4,0.2c0.1,0,0.2-0.1,0.4-0.2c0.1-0.1,0.2-0.3,0.2-0.4c0,0,0,0,0-0.1l1.5,1
		c0.4,0.3,0.7,0.2,1-0.2l0.6-1.1l3,2c0,0,0,0,0,0l2.6,5.5c0.1,0.2,0.2,0.4,0.4,0.4c0.1,0.1,0.3,0,0.5-0.1l4-1.9
		c0.2-0.1,0.4-0.2,0.4-0.4c0-0.1,0-0.3-0.1-0.6c-0.1-0.2-0.2-0.4-0.4-0.4c-0.1-0.1-0.3,0-0.5,0.1l-3.2,1.5l-1.9-4
		c0.4-0.1,0.8-0.4,1-0.9l0.5-1.1h1.6c-0.1,0.3-0.1,0.5,0,0.7c0.1,0.2,0.3,0.4,0.6,0.5c0.3,0.1,0.6,0.1,0.8,0.1
		c0.2-0.1,0.4-0.3,0.5-0.6l0.2-0.6h0.6c0,0.3,0.1,0.6,0.2,0.8c0.1,0.5,0.3,1,0.4,1.4c0.2-0.1,0.5-0.3,0.7-0.5
		c0.3-0.2,0.5-0.4,0.8-0.7c-0.1-0.2-0.1-0.4-0.2-0.6c0-0.2-0.1-0.3-0.1-0.5h0.7c0.1,0.1,0.2,0.3,0.2,0.4c0,0,0,0,0,0
		c0.5-0.5,0.9-1.2,1.2-1.9s0.6-1.5,0.7-2.4c0.1-0.9,0.1-1.7,0-2.5c-0.1-0.8-0.3-1.5-0.6-2.1c-0.3-0.6-0.6-1.2-1-1.8s-0.8-1-1.3-1.4
		c-0.1-0.1-0.1-0.2-0.1-0.4c0-0.2,0.1-0.3,0.2-0.4c0.1-0.1,0.2-0.2,0.4-0.3c0.1-0.1,0.3,0,0.4,0.1c0.5,0.4,1,0.9,1.5,1.5
		c0.5,0.6,0.9,1.3,1.2,2.1c0.3,0.8,0.6,1.6,0.7,2.5c0.1,0.9,0.1,1.9,0,2.9c-0.2,1-0.4,2-0.8,2.8c-0.4,0.8-0.9,1.6-1.4,2.2
		c-0.2,0.3-0.5,0.5-0.7,0.8c-0.1,0.3-0.2,0.6-0.2,0.9c0,0.2,0,0.3,0.1,0.5c-0.1-0.1-0.1-0.2-0.2-0.3c-0.1-0.2-0.2-0.4-0.2-0.5
		c-0.2,0.1-0.3,0.3-0.5,0.4c-0.3,0.2-0.7,0.4-1,0.6c0.1,0.1,0.1,0.2,0.1,0.3c0.5,0.9,1.1,1.7,1.7,2.4c0.6,0.7,1.3,1.3,1.9,1.8
		c0.2,0.1,0.3,0.1,0.5,0.1c0.2-0.1,0.3-0.2,0.5-0.4c0.1-0.2,0.2-0.4,0.3-0.6c0-0.2,0-0.3-0.1-0.4c-0.6-0.4-1.1-1-1.7-1.6
		c0,0,0,0,0,0c0,0,0.1,0,0.1,0c0.1,0,0.2-0.1,0.4-0.2c0.1-0.1,0.2-0.3,0.2-0.4c0-0.1-0.1-0.2-0.2-0.4c-0.2-0.2-0.4-0.4-0.5-0.6
		s-0.2-0.4-0.1-0.6c0-0.2,0.1-0.4,0.2-0.7s0.3-0.5,0.6-0.7l1.2-1.2c0.1-0.1,0.2-0.2,0.3-0.3h1.8c0.1,0.1,0.2,0.1,0.3,0.2l2.6,0.7
		V0.1C507.9,0.1,0,0,0,0z M7.4,36.2c-1,0.1-2,0-2.9-0.2c-0.3-0.1-0.5-0.2-0.7-0.2c1.6-0.2,3.3-0.3,4.9-0.5L9.1,36
		C8.5,36.1,8,36.2,7.4,36.2z M10.4,35.5c-0.1-0.1-0.1-0.2-0.2-0.3l-0.1-0.1c0.2,0,0.5-0.1,0.7-0.1l0.2,0.1
		C10.8,35.3,10.6,35.4,10.4,35.5z M12.3,36.5c0.1-0.1,0.2-0.1,0.4-0.2l0,0C12.6,36.3,12.4,36.4,12.3,36.5z M21.2,34.5l-4.4,1.1
		l-0.1-0.1l0.6-1.3c1.4-0.2,2.7-0.3,4.1-0.5L21.2,34.5z M48.6,34.2l0.7,1.5c-0.1,0.2-0.3,0.3-0.4,0.5l-1.1-1.6L48.6,34.2z
		 M46.5,39.9l-0.9-0.4l-0.5-1.2c0.1,0.2,0.3,0.4,0.4,0.6c0,0,0,0,0,0C45.9,39.2,46.2,39.6,46.5,39.9C46.5,39.9,46.5,39.9,46.5,39.9z
		 M46.2,31.6c-0.3,0.2-0.5,0.3-0.8,0.5c-0.3,0.2-0.6,0.4-0.9,0.7l0,0c0,0,0,0,0,0c-0.1-0.3-0.1-0.7-0.1-1
		C44.9,31.7,45.6,31.6,46.2,31.6z M42.7,31.8C42.7,31.8,42.7,31.8,42.7,31.8L42.7,31.8C42.7,31.8,42.7,31.8,42.7,31.8z M24.1,36.4
		l-0.4,0.3l-0.4-0.1l0.3-1l0.7-0.2c0.2,0,0.3-0.1,0.4-0.2l0.1,0.1L24.1,36.4z M25.5,37.2l1-0.7c0.2-0.1,0.3-0.3,0.3-0.4
		c0-0.1,0-0.3-0.2-0.6l-0.2-0.3l1.2-2.1c0,0,0.1,0,0.1,0l1.7,5.2L25.5,37.2z M25.4,33.4c0.2,0,0.3,0,0.5-0.1l-0.2,0.4L25.4,33.4z
		 M30.3,33.6l0.7,0.1l0,0l-0.5,0.3L30.3,33.6z M31.1,38.8l-0.6-1.9l0.8,1.3c0,0-0.1,0.1-0.1,0.1c0,0.1,0,0.3,0.1,0.5
		c0.1,0.1,0.1,0.2,0.2,0.2C31.4,39,31.3,38.9,31.1,38.8z M31.6,39.4c0-0.1,0-0.1,0-0.2c0,0,0,0,0-0.1c0.1,0.1,0.1,0.1,0.2,0.1
		c0,0,0,0,0,0L31.6,39.4z M31.3,35.3l0.3-0.2l0.6,1.6L31.3,35.3z M32.8,18.2c-0.1,0.2-0.2,0.3-0.3,0.4s-0.3,0-0.5-0.1
		c-0.3-0.1-0.6-0.2-0.9-0.3c-0.3,0-0.5,0-0.7,0.1c-0.2,0.1-0.4,0.3-0.6,0.5c-0.2,0.2-0.4,0.5-0.6,0.9l-0.7,1.4
		c-0.2,0.5-0.6,0.9-1,1.2c-0.4,0.3-0.9,0.5-1.4,0.5c0.3,0.4,0.5,0.9,0.5,1.4c0,0.5-0.1,1-0.3,1.5l-0.8,1.8c-0.2,0.4-0.3,0.7-0.4,1
		c-0.1,0.3-0.1,0.6,0,0.8c0.1,0.2,0.2,0.4,0.4,0.6c0.2,0.2,0.4,0.3,0.8,0.5c0.2,0.1,0.3,0.2,0.4,0.3c0,0.1,0,0.3-0.1,0.5
		c-0.1,0.2-0.2,0.3-0.3,0.4c-0.1,0-0.3,0-0.5-0.1c-1-0.5-1.6-1.1-1.9-1.8c-0.3-0.8-0.2-1.7,0.3-2.8l0.8-1.8c0.3-0.6,0.4-1.1,0.2-1.6
		C25,23.4,24.7,23,24,22.7c-0.2-0.1-0.3-0.2-0.4-0.3c0-0.1,0-0.3,0.1-0.5c0.1-0.2,0.2-0.3,0.3-0.4s0.3,0,0.5,0.1
		c0.6,0.3,1.2,0.4,1.6,0.2c0.4-0.2,0.8-0.6,1.1-1.2l0.7-1.4c0.5-1.1,1.1-1.7,1.9-2c0.8-0.3,1.6-0.2,2.6,0.3c0.2,0.1,0.3,0.2,0.4,0.3
		C32.9,17.8,32.9,18,32.8,18.2z M34.5,36.3L33.7,34l2.6,0.3L34.5,36.3z M36.3,36.3l1.7-1.8c0.1-0.1,0.2-0.3,0.2-0.4
		c0-0.1,0-0.3,0-0.5c-0.1-0.2-0.1-0.3-0.2-0.4c-0.1-0.1-0.2-0.1-0.4-0.2l-3.8-0.5l0-0.1c1.4-0.1,2.7-0.2,4.1-0.4l1.3,3L36.3,36.3z
		 M39.8,37.9c-0.2,0.3-0.3,0.5-0.5,0.8c-0.5,0.1-1,0.1-1.5,0L39.8,37.9z M47.1,45.7c0.1-0.4,0.3-0.7,0.6-1.1
		c0.2-0.2,0.2-0.3,0.2-0.5c0-0.1-0.1-0.3-0.3-0.5c-0.2-0.2-0.4-0.3-0.5-0.3s-0.3,0.1-0.5,0.3c-0.5,0.6-1.1,0.9-1.6,0.9
		c-0.5,0-1.1-0.2-1.7-0.8L42,42.6c-0.6-0.5-1.2-0.9-1.7-1.1c0-0.1,0-0.1-0.1-0.2C40.1,41.1,40,41,39.8,41c-0.1,0-0.3,0-0.4,0.1
		c-0.1,0.1-0.2,0.2-0.3,0.2c-0.3,0-0.6,0.1-0.9,0.2c0,0-0.1,0-0.1,0c0-0.1,0.1-0.2,0.1-0.3c0-0.2,0-0.5,0-0.7c0.6,0,1.2,0,1.8-0.1
		c0.3,0.2,0.6,0.3,0.9,0.4c0.3,0,0.5,0,0.7-0.3c0.1-0.1,0.1-0.2,0.2-0.3l2.7,1c0,0,0,0,0,0c0,0,0,0,0,0l5,1.9
		c0.2,0.1,0.3,0.3,0.5,0.3c0,0,0.1,0,0.1,0l0.4,0.1L47.1,45.7z M51,39.3l-0.8-1.2c0.1-0.1,0.2-0.3,0.3-0.4c0.1,0,0.2,0,0.4,0l2-0.6
		c0.2-0.1,0.3-0.2,0.3-0.3c0-0.2,0-0.3-0.2-0.5l-0.5-0.6l1.1-1.1c0.1-0.1,0.1-0.2,0.2-0.2l0.8,1.6c0.1,0.2,0.2,0.3,0.3,0.3L51,39.3z
		 M57.6,41.7l-2.9-1.5c-0.1-0.1-0.2-0.1-0.3-0.1l5.7-4.4L57.6,41.7z M62.6,33.9L62.6,33.9l0.2-0.2c0.1,0,0.1,0.1,0.2,0.1L62.6,33.9z
		 M67,33c-0.2-0.2-0.4-0.3-0.6-0.5c0.2-0.3,0.4-0.5,0.7-0.6c0.3,0,0.7,0.1,1,0.1c0,0.3,0.1,0.5,0.2,0.8L67,33z M68.9,34.7
		c-0.2-0.2-0.3-0.4-0.5-0.5l0.6-0.1l0.2,0.3L68.9,34.7z M69.8,32.4l-0.4,0.1c0-0.1-0.1-0.2-0.1-0.3c0-0.1,0-0.1,0-0.2
		c0.1,0,0.3,0,0.4,0l-2.7-6.8c-0.2-0.4-0.1-0.8,0.3-1l2.3-1.6c0.2-0.2,0.4-0.2,0.6-0.1c0.2,0.1,0.3,0.3,0.3,0.6l1.2,8.1
		c0.1,0.5-0.1,0.9-0.6,1.3c-0.3,0.2-0.6,0.3-0.9,0.2C70,32.8,69.9,32.7,69.8,32.4z M74.5,40.5c-0.2-0.1-0.4-0.2-0.5-0.4
		c-0.2-0.2-0.4-0.4-0.5-0.7l-0.7-1.1c-0.3-0.4-0.5-0.7-0.9-0.9c-0.3-0.2-0.7-0.3-1.1-0.3c0,0,0,0,0-0.1c0.2-0.4,0.2-0.8,0.2-1.2
		c0-0.4-0.2-0.9-0.4-1.3l0.5-1c0.1-0.2,0.1-0.3,0.1-0.5c0-0.1,0-0.2-0.1-0.2l1.9,1.2c0.6,0.4,1.2,0.6,1.8,0.7l0,0.2l-0.5,2.1
		c-0.1,0.5-0.1,0.8,0,1c0.1,0.2,0.4,0.4,0.7,0.5l0.1,1.8C74.8,40.6,74.7,40.6,74.5,40.5z M76.6,29.2c-0.3,0.2-0.6,0.3-0.9,0.2
		c-0.3-0.1-0.5-0.2-0.6-0.6l-2.8-6.9c-0.2-0.4-0.1-0.8,0.3-1l2.3-1.6c0.2-0.2,0.4-0.2,0.6-0.1c0.2,0.1,0.3,0.3,0.3,0.6l1.2,8.1
		C77.2,28.5,77,28.9,76.6,29.2z M79.5,40.7c-0.6,0.1-1.1,0.1-1.7,0c-0.3,0-0.7-0.1-1-0.1l0.3-5l0.1-0.5c0.1,0.5,0.3,1.1,0.5,1.5
		c0.4,0.7,0.9,1.3,1.7,1.7l1,0.6L79.5,40.7z M81.5,37l-0.9-0.6c-0.6-0.4-1.1-0.9-1.4-1.4l1.1-0.5l1.8,1.2L81.5,37z M85,40.3
		c0-0.1-0.1-0.1-0.1-0.2c0.1-0.1,0.2-0.2,0.3-0.3L85,40.3z M84.5,38.3c-0.1,0.1-0.1,0.1-0.2,0.2l0.6-2.4l0.2-0.3
		c0.2-0.4,0.3-0.7,0.2-0.9c0,0,0-0.1,0-0.1l0.1-0.5c0,0,0,0,0.1,0l0.8,1.9C85.7,36.9,85.2,37.6,84.5,38.3z M91.1,38.1
		c-0.1,0.1-0.3,0.2-0.3,0.3L89.4,35c0.1,0,0.1,0,0.2,0l1,0.3l0.8,1.8c0.1,0.2,0.3,0.4,0.5,0.5L91.1,38.1z M93,37c0-0.1,0-0.1,0-0.2
		L92.9,36l1.3,0.4L93,37z M96.9,39c-0.9-0.3-1.7-0.5-2.6-0.5l2.3-1.2l1.3,0.4c-0.1,0.1-0.1,0.2-0.2,0.3L96.9,39
		C96.9,38.9,96.9,39,96.9,39z M98,41.5l-0.9-0.5c0,0,0-0.1,0-0.1c0.3,0.1,0.6,0.3,0.9,0.5L98,41.5z M99.4,40.1
		c-0.4-0.3-0.9-0.5-1.3-0.7l0.6-0.7c0.2-0.3,0.4-0.6,0.5-0.9c0,0,0,0,0,0c0.2-0.1,0.3-0.3,0.4-0.7c0-0.1,0-0.2,0-0.3
		c0.2,0,0.3,0.1,0.5,0.1c0.2,0.5,0.3,0.9,0.3,1.3C100.3,38.9,100,39.5,99.4,40.1z M103.9,40.5c-0.2,0-0.4,0.1-0.5,0.2
		s-0.1,0.3-0.1,0.6v3.1c-0.2-0.4-0.5-0.8-0.7-1.2c-0.4-0.6-0.9-1.1-1.4-1.7c0.4-0.5,0.7-1,0.9-1.5c0.3-0.8,0.3-1.6,0.2-2.4
		c0.6,0.2,1.3,0.3,1.9,0.2l0.1,0.8c0,0.2,0.1,0.3,0.3,0.4c0,0,0.1,0,0.1,0c0,0.1,0,0.2,0,0.3l0.2,1.3H103.9z M106,38l0.1-0.1
		c0,0,0,0,0.1,0L106,38z M106.8,21.7c0,0.4-0.2,0.8-0.4,1.1c-0.2,0.4-0.5,0.7-0.8,0.9c-0.3,0.2-0.7,0.4-1,0.5
		c-0.4,0.1-0.8,0.1-1.2,0.1c-0.4,0-0.8-0.2-1.1-0.4c-0.4-0.2-0.7-0.5-0.9-0.8c-0.2-0.3-0.4-0.7-0.5-1c-0.1-0.4-0.1-0.8-0.1-1.2
		c0-0.4,0.2-0.8,0.4-1.1c0.2-0.4,0.5-0.7,0.8-0.9s0.7-0.4,1-0.5c0.4-0.1,0.8-0.1,1.2-0.1c0.4,0,0.8,0.2,1.1,0.4
		c0.4,0.2,0.7,0.5,0.9,0.8s0.4,0.7,0.5,1C106.8,21,106.9,21.3,106.8,21.7z M122.8,30.6l-1.2,2.2c-0.3,0.5-0.7,0.6-1.2,0.2l-10.5-7
		c-0.5-0.3-0.6-0.8-0.3-1.4c0.2-0.3,0.4-0.5,0.6-0.6c0.2-0.1,0.5-0.1,0.8,0.1l11.5,5.4C122.9,29.7,123.1,30.1,122.8,30.6z M124,43.7
		l0.4-0.2l0.5,1.8L124,43.7z M127.6,43.3c-0.2,0.2-0.4,0.4-0.6,0.6c-0.1,0.2-0.2,0.5-0.3,0.8l-0.4,0.7l-0.7-2.4l2.3-1
		c0.1,0.1,0.2,0.2,0.3,0.3L127.6,43.3z M158.7,40.5l0.1-0.1l0.2,0.5c0.1,0.3,0.2,0.4,0.3,0.5c0.1,0,0.1,0,0.2,0l-0.1,0.3
		c-0.3,0-0.6-0.2-1-0.5C158.5,40.9,158.6,40.7,158.7,40.5z M137.6,42.5c0.2,0.1,0.3,0.3,0.4,0.5c0.1,0.2,0.2,0.5,0.2,0.7
		c0,0.2,0.1,0.3,0.2,0.4c0.1,0.1,0.2,0.1,0.4,0c0.2,0,0.3-0.1,0.4-0.2c0.1-0.1,0.1-0.2,0-0.4c0-0.1-0.1-0.2-0.1-0.3
		c0,0,0.1,0,0.1,0.1l0.6,0.2l2.3,1.7l0.5,1.5c-0.5,0.1-1,0.1-1.6,0.1c-0.8,0-1.7-0.2-2.6-0.6c-0.9-0.4-1.7-0.8-2.4-1.4
		s-1.2-1.2-1.7-1.8c0-0.1-0.1-0.1-0.1-0.2c0.1,0,0.1,0,0.2,0l1.5-0.3c0.3-0.1,0.6-0.1,0.9-0.1C137.2,42.3,137.4,42.4,137.6,42.5z
		 M136.3,40.7c0.1,0.1,0.2,0.2,0.4,0.3c-0.2,0-0.4,0-0.7,0.1l-1.6,0.3c-0.3,0.1-0.5,0.1-0.8,0c-0.1-0.2-0.2-0.4-0.3-0.6
		c0-0.1-0.1-0.2-0.1-0.2C134.3,40.7,135.3,40.7,136.3,40.7z M130.8,42.2c-0.2-0.2-0.3-0.4-0.5-0.6l0.7-1.1c0.2,0,0.4,0,0.6,0
		c0,0.5,0,0.8-0.2,1.1C131.2,42,131,42.1,130.8,42.2z M144.7,49.5c0,0.8-0.2,1.5-0.4,2.3c-0.1,0.4-0.2,0.8-0.4,1.1l-10.1-7.3
		c-0.4-0.3-0.7-0.4-0.9-0.3c-0.1,0-0.2,0.1-0.3,0.2c-0.3-0.8-0.7-1.6-1.2-2.3c0.1,0,0.1-0.1,0.2-0.1c0.3-0.2,0.4-0.5,0.6-0.9
		c0.3,0.6,0.7,1.2,1.1,1.8c0.6,0.8,1.2,1.5,2,2.1c0.8,0.6,1.7,1.2,2.7,1.6c1,0.4,2.1,0.6,3,0.7c1,0,1.9,0,2.8-0.3
		c0.3-0.1,0.6-0.2,0.9-0.3C144.8,48.4,144.8,48.9,144.7,49.5z M146.1,43.9C146,44,146.1,44,146.1,43.9l-0.2,0l-0.3-1.6l0.5-0.2
		l0.1,0.1c0.1,0.1,0.3,0.1,0.4,0.1C146.3,42.9,146.2,43.4,146.1,43.9z M146.4,33.7c-0.3,0.6-0.8,1-1.4,1.4l-2.1,1.3
		c-0.4,0.3-0.8,0.6-1.1,0.9c-0.3,0.3-0.4,0.6-0.5,0.9s-0.1,0.6,0,0.9c0.1,0.3,0.2,0.7,0.5,1.1c0.1,0.2,0.2,0.4,0.2,0.5
		c0,0,0.1,0,0.1,0c0.2,0,0.3,0,0.5,0l0.4,0.8l-0.7,0.3l-0.7-0.5c-0.3,0.2-0.5,0.2-0.6,0.2c-0.2,0-0.3-0.2-0.5-0.4
		c-0.7-1.2-1-2.3-0.8-3.3c0.2-1,1-1.9,2.2-2.7l2.1-1.4c0.7-0.5,1.2-1,1.3-1.6c0.1-0.6,0-1.2-0.5-2c-0.1-0.2-0.2-0.4-0.2-0.6
		s0.2-0.3,0.4-0.5c0.3-0.2,0.5-0.2,0.6-0.2c0.2,0,0.3,0.2,0.5,0.4c0.5,0.7,1,1.2,1.6,1.3c0.6,0.1,1.3-0.1,2-0.5l1.7-1.1
		c1.3-0.8,2.4-1.1,3.4-0.9c1,0.2,1.9,0.9,2.6,2.1c0.1,0.2,0.2,0.4,0.2,0.6c0,0.2-0.2,0.3-0.4,0.5c-0.3,0.2-0.5,0.2-0.6,0.2
		c-0.2,0-0.3-0.2-0.5-0.4c-0.2-0.4-0.5-0.7-0.8-0.9c-0.3-0.2-0.5-0.3-0.9-0.4c-0.3,0-0.6,0-1,0.1c-0.4,0.1-0.8,0.3-1.2,0.6l-1.7,1.1
		c-0.6,0.4-1.2,0.6-1.9,0.7c-0.6,0.1-1.3-0.1-1.9-0.4C146.9,32.5,146.7,33.1,146.4,33.7z M157,39.7c0,0,0,0.1,0,0.1
		c0,0-0.1-0.1-0.1-0.1C156.9,39.7,156.9,39.7,157,39.7z M156.3,40.8c-0.2,0.2-0.4,0.3-0.7,0.4l0.4-0.6c0,0,0,0,0,0
		C156.1,40.6,156.2,40.7,156.3,40.8z M153.6,41c0.1,0.1,0.3,0.2,0.4,0.2c0.1,0,0.2-0.1,0.3-0.2c0.1-0.2,0.3-0.3,0.4-0.4l-0.4,0.7
		c-0.1,0-0.2,0.1-0.3,0.1c-0.1,0.1-0.2,0.3-0.2,0.5l-0.8,1.3l-0.5-0.3l-0.6-2l1.7-0.9c0,0-0.1,0.1-0.1,0.1c-0.1,0.1-0.2,0.3-0.2,0.4
		C153.4,40.7,153.5,40.9,153.6,41z M154.5,42.9C154.5,42.9,154.5,43,154.5,42.9c0.3,0,0.5,0,0.8,0l-0.1,0.1c0,0,0,0,0,0
		c-0.1,0-0.2,0-0.3,0c-0.1,0.1-0.2,0.2-0.3,0.4l-0.2,0.6l-0.5-0.3L154.5,42.9z M147.7,44.6C147.7,44.6,147.7,44.6,147.7,44.6
		c0-0.1,0-0.1,0-0.2c0.2-0.4,0.3-0.9,0.4-1.3c0.2,0,0.4,0.1,0.7,0.1l0.1,0.8c0.1,0.5,0.3,0.7,0.7,0.6l1.4-0.3l1,0.6l0,0.1
		c0,0.1,0.1,0.2,0.2,0.3c0.1,0.1,0.2,0.1,0.3,0.1c0.1,0,0.2,0,0.3,0c0,0,0.1,0,0.1-0.1l1,0.5l-0.3,0.9L147.7,44.6z M153.2,52.9
		l-2.6-4c0.1-0.2,0.1-0.4,0.1-0.6c0-0.3-0.2-0.6-0.6-0.8l-0.8-0.6l4.6,1.7c0.2,0.1,0.4,0.1,0.5,0c0.1-0.1,0.2-0.2,0.3-0.4l0.5-1.6
		l2.9,1.6c0.3,0.1,0.5,0.2,0.7,0.1c0.2-0.1,0.4-0.3,0.5-0.6c0.1-0.3,0.2-0.6,0.1-0.8c-0.1-0.2-0.2-0.4-0.5-0.5l-3.2-1.7l0.1-0.4
		l3.3,2.1c0.2,0.1,0.4,0.2,0.5,0.1c0.1,0,0.3-0.2,0.4-0.4c0.1-0.2,0.2-0.4,0.2-0.6c0-0.1-0.1-0.3-0.4-0.4l-3-1.9l0.7-1.2
		c0.3,0.3,0.7,0.5,1,0.7c0.2,0,0.3,0.1,0.5,0.1c0,0,0,0.1,0.1,0.1c0.1,0.2,0.2,0.2,0.4,0.3c0.1,0,0.1,0,0.2,0c0,0.1,0,0.3,0,0.4
		c0,0,0,0.1,0,0.1c0,0.3,0.1,0.5,0.2,0.6c0,0.1,0.1,0.1,0.2,0.1c0.1,0.2,0.3,0.4,0.5,0.6l1.1,1.1L153.2,52.9z M164,43
		c-0.1,0.4-0.2,0.9-0.3,1.4c-0.2-0.2-0.4-0.4-0.7-0.6c0.5-0.3,0.9-0.8,1.2-1.3c0,0,0,0,0,0C164.1,42.6,164.1,42.8,164,43z
		 M166.5,42.7C166.5,42.6,166.4,42.6,166.5,42.7c0-0.1,0.1-0.1,0.1-0.1L166.5,42.7z M174.8,44.3l-0.1,0.1c-0.1-0.2-0.1-0.3-0.1-0.5
		l0.4,0.3C174.9,44.2,174.9,44.3,174.8,44.3z M174.9,40.4l-0.1,0c0.2-0.2,0.5-0.4,0.7-0.5L174.9,40.4z M180.6,42
		c-0.1-0.1-0.3-0.1-0.5,0l-0.1,0l-0.1,0c-0.2-0.1-0.4-0.1-0.5,0l-0.2-0.1l0.8-1.7l0.8,1.7L180.6,42z M183.4,40.9l-0.1-0.3l0.3,0.2
		L183.4,40.9z M185.8,44.4l-0.1-0.1c0-0.1-0.1-0.1-0.2-0.1l0.4-0.3C185.9,44.1,185.8,44.2,185.8,44.4z M189.9,42.8
		C189.9,42.8,189.9,42.8,189.9,42.8L189.9,42.8L189.9,42.8C190,42.8,190,42.8,189.9,42.8z M194.5,42.4c0.2,0,0.5-0.1,0.7-0.1
		c0.1,0,0.1,0,0.2-0.1c0.2,0.4,0.3,0.7,0.5,1.1L194.5,42.4z M197.8,44.4c-0.1-0.5-0.2-0.9-0.3-1.4c-0.1-0.3-0.2-0.6-0.3-0.9l0,0
		c0,0.1,0.1,0.1,0.1,0.2c0.3,0.6,0.7,1,1.3,1.4C198.3,43.9,198,44.1,197.8,44.4z M199.4,41.1l0.3-0.1c0,0,0,0.1,0.1,0.1L199.4,41.1z
		 M199.9,31.7c0.4-0.8,0.4-1.5,0.2-2.1c-0.2-0.6-0.8-1-1.6-1.4l-1.9-0.8c-1.4-0.6-2.3-1.5-2.7-2.5c-0.4-1-0.3-2.2,0.3-3.5
		c0.1-0.3,0.3-0.4,0.4-0.5c0.2-0.1,0.4,0,0.7,0.1c0.3,0.1,0.5,0.3,0.5,0.4c0.1,0.2,0,0.4-0.1,0.6c-0.2,0.4-0.3,0.8-0.3,1.2
		c0,0.3,0,0.7,0.2,1s0.4,0.6,0.7,0.8c0.3,0.2,0.7,0.5,1.2,0.7l1.9,0.8c0.7,0.3,1.2,0.7,1.6,1.2c0.4,0.5,0.7,1.1,0.7,1.8
		c0.6-0.4,1.2-0.6,1.8-0.7c0.7,0,1.3,0.1,2,0.4l2.4,1.1c0.5,0.2,1,0.4,1.3,0.4c0.4,0.1,0.7,0.1,1.1,0c0.3-0.1,0.6-0.3,0.8-0.5
		c0.2-0.3,0.4-0.6,0.6-1c0.1-0.3,0.3-0.4,0.4-0.5s0.4,0,0.7,0.1c0.3,0.1,0.5,0.3,0.5,0.4c0.1,0.2,0,0.4-0.1,0.6
		c-0.6,1.3-1.4,2.2-2.4,2.6c-1,0.4-2.2,0.3-3.6-0.4l-2.4-1.1c-0.8-0.4-1.5-0.4-2.1-0.2c-0.6,0.2-1.1,0.7-1.4,1.6
		c-0.1,0.3-0.3,0.4-0.4,0.5s-0.4,0-0.7-0.1c-0.3-0.1-0.5-0.3-0.5-0.4C199.8,32.2,199.8,32,199.9,31.7z M212.4,41.9l-1,0.5l0.2-0.6
		l0.3-0.2L212.4,41.9z M208.9,41c0,0.3,0,0.6,0.1,0.9c0,0,0,0.1,0,0.1c-0.1,0-0.2,0-0.3,0.1l0.1-1C208.8,41,208.8,41,208.9,41
		C208.8,41,208.9,41,208.9,41z M208.9,40.2L208.9,40.2L208.9,40.2C208.9,40.2,208.9,40.2,208.9,40.2
		C208.9,40.2,208.9,40.2,208.9,40.2z M205.3,39.7c-0.2,0.1-0.4,0.3-0.6,0.5l-1,0.9c-0.1,0.1-0.2,0.2-0.3,0.2c0,0-0.1,0-0.1,0
		c-0.2,0-0.4,0-0.5,0c0.1-0.1,0.2-0.2,0.3-0.4l0.5-1.3C204.1,39.6,204.7,39.6,205.3,39.7z M212.7,47.5c-0.4,0.3-0.6,0.5-0.7,0.8
		c0,0.2,0,0.4,0.1,0.6l-2.8,4l-9.4-6.6l1.2-1.1c0.2-0.2,0.3-0.3,0.4-0.5l1-0.7c0.2-0.1,0.3-0.3,0.3-0.4c0-0.1,0-0.3-0.2-0.6l0-0.1
		c0,0,0,0,0,0c0.2,0,0.4,0,0.6,0c0.3,0,0.4-0.1,0.5-0.2c0.1-0.1,0.1-0.2,0.1-0.3c0.2-0.1,0.4-0.2,0.5-0.4l1-0.9
		c0.3-0.2,0.5-0.4,0.7-0.6c0,0,0,0,0,0l0.1,0.1l-0.7,2.7c-0.1,0.5,0,0.8,0.4,0.9l0.4,0.1l0.1,0.4l-3.5,1.7c-0.3,0.1-0.5,0.3-0.5,0.5
		c-0.1,0.2,0,0.5,0.1,0.8c0.2,0.3,0.3,0.5,0.5,0.6c0.2,0.1,0.4,0,0.7-0.1l3.2-1.6l0.5,1.6c0.1,0.2,0.2,0.4,0.3,0.4
		c0.1,0.1,0.3,0.1,0.6,0l5-1.7L212.7,47.5z M217.3,43.9l-1.7,0.6c-0.1,0-0.2,0-0.3,0.1c0,0-0.1,0-0.1,0.1l-6.5,2.2l-0.3-0.9l1.1-0.5
		c0,0,0.1,0.1,0.1,0.1c0.1,0,0.2,0.1,0.3,0c0.1,0,0.2-0.1,0.3-0.1c0.1-0.1,0.1-0.2,0.2-0.3l0-0.1l4.2-2c0.2-0.1,0.4-0.2,0.5-0.4
		c0.1-0.1,0.2-0.3,0.2-0.6c0-0.2,0-0.4-0.1-0.5l2.5,0.9L217.3,43.9z M227.8,40.7c1.1,0,2.2,0,3.3,0c0,0.1-0.1,0.2-0.1,0.2
		c-0.1,0.2-0.2,0.4-0.3,0.6c-0.2,0-0.5,0-0.8,0l-1.7-0.3c-0.3-0.1-0.5-0.1-0.7-0.1C227.5,41,227.7,40.9,227.8,40.7z M224.5,43.2
		c0.1,0,0.1,0,0.1-0.1c0,0.1-0.1,0.2-0.1,0.3c0,0.2,0,0.3,0,0.4c0.1,0.1,0.2,0.2,0.4,0.2c0.2,0,0.4,0,0.4,0c0.1-0.1,0.2-0.2,0.2-0.4
		c0.1-0.3,0.1-0.5,0.3-0.7c0.1-0.2,0.3-0.4,0.5-0.5c0.2-0.1,0.4-0.2,0.7-0.2c0.3,0,0.6,0,0.9,0.1l1.7,0.3c0.1,0,0.1,0,0.2,0
		c-0.1,0.1-0.1,0.1-0.1,0.2c-0.5,0.6-1.1,1.2-1.9,1.8s-1.6,1-2.6,1.4c-1,0.4-2,0.6-2.9,0.6c-0.6,0-1.2,0-1.7-0.1l0.6-1.5l2.5-1.7
		L224.5,43.2z M220.9,40.7c0.2,0,0.4,0,0.6,0c0.5,0,0.9,0,1.4,0l-1.6,1.1l-0.8-0.3L220.9,40.7z M218.1,40.6L218.1,40.6
		C218.1,40.6,218.1,40.6,218.1,40.6L218.1,40.6z M231.7,45.5c-0.1-0.1-0.2-0.1-0.3-0.2c-0.3-0.1-0.6,0-1,0.3l-11,7.3
		c-0.2-0.4-0.3-0.8-0.4-1.1c-0.2-0.8-0.4-1.6-0.4-2.3c0-0.6,0-1.1,0-1.7c0.3,0.1,0.6,0.2,1,0.3c0.9,0.2,2,0.3,3,0.3
		c1.1,0,2.2-0.3,3.3-0.7c1.1-0.4,2.1-0.9,3-1.6c0.9-0.7,1.6-1.4,2.2-2.1c0.5-0.6,0.9-1.2,1.2-1.8c0.2,0.3,0.4,0.6,0.6,0.9
		c0.1,0,0.1,0.1,0.2,0.1C232.5,43.9,232.1,44.7,231.7,45.5z M233.8,42.2c-0.3-0.1-0.5-0.3-0.6-0.5c-0.2-0.3-0.3-0.7-0.2-1.1
		c0.2,0,0.4,0,0.7,0l0.7,1.1C234.2,41.9,234,42.1,233.8,42.2z M238.6,45.4l-0.5-0.7c-0.1-0.3-0.2-0.5-0.3-0.8
		c-0.1-0.2-0.4-0.4-0.6-0.6l-0.7-1.1c0.1-0.1,0.2-0.2,0.4-0.3l2.5,1L238.6,45.4z M240,41c-0.2,0.3-0.4,0.5-0.7,0.7
		c-0.3,0.2-0.6,0.3-0.9,0.4c-0.3,0.1-0.7,0.1-1,0c-0.3-0.1-0.6-0.2-0.9-0.4c-0.3-0.2-0.5-0.4-0.7-0.7c-0.2-0.3-0.3-0.6-0.4-0.9
		c-0.1-0.3-0.1-0.7,0-1s0.2-0.6,0.4-0.9c0.2-0.3,0.4-0.5,0.7-0.7c0.3-0.2,0.6-0.3,0.9-0.4c0.3-0.1,0.7-0.1,1,0
		c0.3,0.1,0.6,0.2,0.9,0.4c0.3,0.2,0.5,0.4,0.7,0.7c0.2,0.3,0.3,0.6,0.4,0.9c0.1,0.3,0.1,0.7,0,1C240.3,40.4,240.2,40.7,240,41z
		 M240.2,45.3l0.6-1.8l0.4,0.2L240.2,45.3z M235.6,25.1c-0.2-0.2-0.3-0.3-0.3-0.5c-0.1-0.2,0-0.3,0-0.6c0.1-0.2,0.2-0.4,0.3-0.5
		c0.1-0.1,0.3-0.2,0.6-0.2l11.2-1.5c0.3,0,0.5,0,0.7,0.1c0.2,0.1,0.3,0.3,0.3,0.7c0,0.3,0,0.6-0.1,0.8c-0.1,0.2-0.3,0.3-0.6,0.3
		l-9.7,1.2l7,6.8c0.2,0.2,0.3,0.4,0.3,0.6c0,0.2-0.1,0.4-0.4,0.7c-0.2,0.2-0.5,0.3-0.7,0.3c-0.2,0-0.4-0.1-0.6-0.3L235.6,25.1z
		 M254.5,38.2l-10.4,1.2c-0.5,0.1-0.8-0.2-0.9-0.8c-0.1-0.3,0-0.5,0.1-0.7c0.1-0.2,0.3-0.3,0.5-0.4l10.1-2.7c0.5-0.1,0.8,0,0.9,0.5
		l0.4,2.1C255.3,37.9,255,38.1,254.5,38.2z M260.7,37.9C260.7,37.9,260.8,37.9,260.7,37.9l0.2,0.1L260.7,37.9z M275.2,36l-0.2,0.8
		c0,0.1,0,0.2,0,0.2l-1.2-0.6L275.2,36z M264.7,43.1c-0.3,0.4-0.6,0.8-0.8,1.2v-3.1c0-0.3-0.1-0.5-0.2-0.6s-0.3-0.2-0.5-0.2h-0.9
		l0.2-1.3c0-0.1,0-0.2,0-0.3c0,0,0.1,0,0.1,0c0.2,0,0.3-0.2,0.3-0.4l0.1-0.8c0.7,0.1,1.4,0.1,2.1-0.2c-0.2,0.8-0.1,1.6,0.2,2.4
		c0.2,0.5,0.5,1.1,1,1.5C265.6,42,265.1,42.6,264.7,43.1z M269.6,41.5l-0.1-0.1c0.3-0.2,0.7-0.4,1-0.5c0,0,0,0.1,0,0.1L269.6,41.5z
		 M276.1,38.7c-0.1,0.2-0.2,0.3-0.4,0.3c-0.8,0.1-1.6,0.2-2.5,0.2c-0.7,0-1.4-0.2-2.1-0.3c-0.1,0-0.1,0-0.2,0.1c0,0,0,0,0,0
		l-0.1-0.1c-0.1,0-0.2,0-0.4-0.1c-0.6-0.2-1.3-0.5-1.9-0.8c0.1,0.3,0.3,0.5,0.5,0.7l0.6,0.7c-0.5,0.2-1,0.5-1.5,0.7
		c-0.6-0.6-1-1.3-1.1-1.9c0-0.3,0-0.6,0.1-0.9c-0.9-0.6-1.7-1.3-2.4-2.1c-0.8-0.9-1.5-1.9-1.9-3c-0.5-1-0.8-2-0.9-3
		c-0.2-1-0.2-2-0.1-2.9c0.1-0.9,0.2-1.8,0.5-2.5c0.1-0.2,0.2-0.3,0.4-0.3s0.4,0,0.6,0c0.2,0.1,0.4,0.2,0.5,0.3s0.2,0.3,0.2,0.4
		c-0.2,0.7-0.3,1.4-0.4,2.2c-0.1,0.8,0,1.6,0.1,2.5c0.1,0.9,0.4,1.7,0.8,2.6c0.4,0.9,0.9,1.7,1.7,2.6c0.7,0.8,1.5,1.5,2.3,2
		c0.8,0.5,1.6,0.9,2.4,1.1s1.6,0.4,2.4,0.4c0.8,0,1.5,0,2.2-0.1c0.2,0,0.3,0.1,0.4,0.2c0.1,0.2,0.2,0.3,0.2,0.6
		C276.2,38.4,276.1,38.6,276.1,38.7z M277.6,38.3c-0.1-0.1-0.2-0.2-0.4-0.3l-0.9-0.5c0.2-0.1,0.4-0.2,0.6-0.5l0.9-1.8l1.1-0.3
		c0.1,0,0.1,0,0.2,0L277.6,38.3z M283.8,40.3l-0.2-0.5c0.1,0.1,0.2,0.2,0.4,0.3C283.9,40.2,283.8,40.2,283.8,40.3z M284.4,38.3
		c-0.8-0.7-1.4-1.4-1.9-2.2l0.9-1.9c0,0,0,0,0.1,0l0.1,0.5c0,0,0,0.1,0,0.1c-0.1,0.3,0,0.6,0.2,0.9l0.2,0.3l0.7,2.4
		C284.6,38.4,284.5,38.4,284.4,38.3z M288.6,36.5l-1,0.6l-0.7-1.2l2-1.2l1.2,0.5C289.8,35.6,289.3,36.1,288.6,36.5z M291.7,40.7
		c-0.6,0.1-1.2,0-1.8,0l-1.1-1.7l1.1-0.6c0.8-0.5,1.4-1.1,1.8-1.7c0.3-0.5,0.5-1,0.6-1.5l0.1,0.5l0.4,5
		C292.5,40.6,292.1,40.7,291.7,40.7z M299.5,37C299.4,37,299.4,37,299.5,37c-0.5,0-0.9,0.1-1.2,0.3c-0.4,0.2-0.7,0.5-1,0.9l-0.7,1.1
		c-0.2,0.3-0.4,0.5-0.6,0.7c-0.2,0.2-0.4,0.3-0.6,0.4c-0.2,0.1-0.4,0.1-0.5,0l0.1-1.8c0.4-0.1,0.7-0.3,0.8-0.5c0.1-0.2,0.2-0.6,0-1
		l-0.6-2.1l0-0.2c0.6-0.1,1.3-0.3,1.9-0.7l2-1.2c0,0.1-0.1,0.2-0.1,0.2c0,0.1,0,0.3,0.1,0.5l0.5,1c-0.3,0.4-0.4,0.8-0.5,1.3
		C299.2,36.2,299.3,36.6,299.5,37z M301.1,32.2c0,0.1-0.1,0.2-0.1,0.3l-0.9-0.2c0,0-0.1,0-0.1,0c0.1-0.1,0.3-0.1,0.4-0.2
		c0.3,0,0.5,0,0.8-0.1C301.1,32.1,301.1,32.2,301.1,32.2z M301.5,34.7l-0.2-0.4l0.2-0.3l0.6,0.1C301.8,34.4,301.7,34.6,301.5,34.7z
		 M303.5,33l-1.3-0.3c0.1-0.3,0.2-0.5,0.2-0.8c0.4,0,0.7-0.1,1.1-0.1c0.3,0.2,0.5,0.4,0.7,0.6C304,32.7,303.7,32.8,303.5,33z
		 M307.9,33.8c0.1,0,0.1-0.1,0.2-0.1l0.2,0.1l0,0L307.9,33.8z M316.9,40.2l-3.2,1.5l-2.8-6l6.3,4.4C317.1,40.1,317,40.2,316.9,40.2z
		 M321,39.3l-4.4-3.1c0.1,0,0.3-0.1,0.4-0.3l0.9-1.6c0.1,0.1,0.1,0.2,0.2,0.2l1.2,1.1l-0.6,0.6c-0.2,0.2-0.2,0.4-0.2,0.5
		c0,0.2,0.1,0.3,0.3,0.3l2.2,0.6c0.2,0,0.3,0,0.4,0c0.1,0.1,0.2,0.3,0.3,0.4L321,39.3z M323.2,36.1c-0.1-0.2-0.3-0.3-0.4-0.5
		l0.8-1.5l0.8,0.3L323.2,36.1z M328.1,32.7C328.1,32.7,328.1,32.7,328.1,32.7L328.1,32.7c-0.4-0.2-0.7-0.4-1-0.6
		c-0.3-0.2-0.6-0.3-0.8-0.5c0.7,0,1.4,0.1,2,0.1C328.3,32.1,328.2,32.4,328.1,32.7z M330.1,31.8C330.1,31.8,330.1,31.8,330.1,31.8
		C330.1,31.8,330.1,31.8,330.1,31.8L330.1,31.8z M333.8,35.1l1.5-3c1.5,0.1,3,0.2,4.5,0.4l-0.1,0.1l-4.1,0.5c-0.2,0-0.3,0.1-0.5,0.2
		c-0.1,0.1-0.2,0.2-0.3,0.4c-0.1,0.2-0.1,0.3,0,0.5c0,0.1,0.1,0.3,0.3,0.4l1.8,1.8L333.8,35.1z M339.1,36.3l-1.9-1.9l2.8-0.3
		L339.1,36.3z M342.3,35.1l0.3,0.2l-0.9,1.4L342.3,35.1z M342.3,39.2c0,0.1,0,0.1-0.1,0.2l-0.1-0.1c0,0,0,0,0,0
		C342.2,39.2,342.2,39.2,342.3,39.2C342.3,39.1,342.3,39.2,342.3,39.2z M342.7,38.8c-0.2,0.1-0.3,0.2-0.4,0.3
		c0.1-0.1,0.1-0.1,0.2-0.2c0.1-0.2,0.2-0.4,0.2-0.5c0-0.1,0-0.1-0.1-0.1l0.8-1.3L342.7,38.8z M343.3,34.1l-0.5-0.3l0,0l0.8-0.1
		L343.3,34.1z M344.6,38.3l1.8-5.2c0,0,0.1,0,0.1,0l1.3,2.1l-0.2,0.3c-0.1,0.2-0.2,0.4-0.2,0.6c0,0.1,0.1,0.3,0.4,0.4l1.1,0.7
		L344.6,38.3z M348.7,33.7l-0.3-0.4c0.2,0,0.3,0,0.5,0.1L348.7,33.7z M350.8,36.7l-0.4-0.3l-0.7-1.2l0.1-0.1
		c0.1,0.1,0.2,0.2,0.4,0.2l0.8,0.2l0.3,1L350.8,36.7z M358.4,35.7l-4.8-1.1l-0.2-0.7c1.5,0.2,3,0.3,4.5,0.5l0.6,1.3L358.4,35.7z
		 M365.6,35.2c-0.1,0.1-0.1,0.2-0.2,0.3c-0.3-0.1-0.5-0.2-0.7-0.3l0.2-0.1c0.3,0,0.5,0.1,0.8,0.1L365.6,35.2z M371.9,36
		c-1,0.2-2,0.3-3.1,0.2c-0.7,0-1.3-0.1-1.9-0.3l0.5-0.7c1.8,0.2,3.6,0.3,5.3,0.5C372.4,35.8,372.1,35.9,371.9,36z M376.3,33
		c-0.1,0.4-0.2,0.6-0.4,0.7c-0.2,0.1-0.5,0.1-0.9,0.1c-0.4-0.1-0.7-0.2-0.8-0.4c-0.1-0.2-0.2-0.5-0.1-0.8c0.1-0.6,0.2-1.1,0.1-1.6
		c-0.1-0.5-0.2-0.9-0.5-1.2s-0.6-0.6-1.1-0.8c-0.5-0.2-1.1-0.4-1.8-0.6l-2.6-0.6c-1-0.2-1.8-0.6-2.4-1.1c-0.7-0.5-1.1-1.3-1.4-2.1
		c-0.6,0.7-1.4,1.1-2.2,1.4c-0.8,0.2-1.7,0.2-2.7,0l-3.3-0.7c-0.7-0.1-1.3-0.2-1.8-0.2c-0.5,0-1,0.1-1.3,0.3s-0.7,0.5-0.9,0.9
		c-0.2,0.4-0.4,0.9-0.5,1.5c-0.1,0.4-0.2,0.6-0.4,0.7s-0.5,0.1-0.9,0.1c-0.4-0.1-0.7-0.2-0.8-0.4c-0.1-0.2-0.2-0.5-0.1-0.8
		c0.4-1.8,1.2-3.2,2.3-3.9c1.2-0.8,2.8-1,4.8-0.5l3.4,0.7c1.1,0.2,2.1,0.2,2.8-0.3c0.7-0.4,1.2-1.2,1.4-2.4c0.1-0.4,0.2-0.6,0.4-0.7
		c0.2-0.1,0.5-0.1,0.9-0.1c0.4,0.1,0.7,0.2,0.8,0.4c0.1,0.2,0.2,0.5,0.1,0.8c-0.2,1.2-0.1,2.1,0.3,2.8c0.5,0.7,1.3,1.1,2.4,1.4
		l2.7,0.6c2,0.4,3.4,1.2,4.1,2.4C376.5,29.7,376.7,31.2,376.3,33z M377.3,39C377.3,39,377.3,38.9,377.3,39
		C377.3,38.9,377.3,38.9,377.3,39L377.3,39z M380.7,36.5c-0.1,0-0.1,0-0.2-0.1c-0.6-0.1-1,0-1.4,0.4l-0.1,0.2c-0.2,0-0.4,0-0.5,0
		c-0.1,0-0.2-0.1-0.3-0.1c0-0.1-0.1-0.2-0.1-0.3c0-0.1,0-0.2-0.1-0.3c1,0.1,1.9,0.1,2.9,0.2C380.8,36.4,380.8,36.4,380.7,36.5z
		 M388.1,43.4c-0.7,0-1.4,0-2.1-0.1c-0.1,0-0.1,0-0.2,0l0.7-1.4L388.1,43.4z M399,37.4l-1-0.5c0.4,0,0.8,0,1.1,0L399,37.4z
		 M417.6,37.4c0-0.1,0-0.1,0-0.2l-0.3-1.6c0.6-0.1,1.3-0.2,1.9-0.3L417.6,37.4z M422.2,35.5l-0.1-0.5c0.1,0,0.2,0,0.2,0L422.2,35.5z
		 M428.5,33.9l0.1-0.1c0,0,0,0,0.1,0L428.5,33.9z M436.1,23.5c-0.1,0.2-0.2,0.4-0.3,0.5c-0.1,0.1-0.3,0.2-0.6,0.3l-12.1,2.8
		c-0.3,0.1-0.6,0.1-0.8-0.1c-0.2-0.1-0.3-0.3-0.4-0.7c-0.1-0.4-0.1-0.6,0-0.8c0.1-0.2,0.3-0.3,0.7-0.4l10.4-2.3l-8.4-6.7
		c-0.3-0.2-0.4-0.4-0.4-0.7c0-0.2,0.1-0.5,0.3-0.8c0.2-0.3,0.5-0.4,0.7-0.4c0.2,0,0.5,0.1,0.7,0.3l9.7,7.8c0.2,0.2,0.3,0.3,0.4,0.5
		C436.2,23.1,436.2,23.3,436.1,23.5z M449.8,28.7l-0.4-0.4c0,0,0,0,0,0c0.2-0.2,0.4-0.4,0.5-0.6l0,0L449.8,28.7z M456.1,27.7
		l0.8-2.4l1,1.3L456.1,27.7z M459,25.8l-1.2-1.5c0.2-0.1,0.3-0.1,0.5-0.2l0.9,1.5C459.2,25.7,459.1,25.7,459,25.8z M460.5,27.6
		C460.5,27.6,460.5,27.6,460.5,27.6l0.1,0.1L460.5,27.6z M466.3,23.7c-0.3,0.2-0.6,0.3-0.9,0.4c-0.3,0.1-0.7,0.1-1,0
		c-0.3-0.1-0.6-0.2-0.9-0.4c-0.3-0.2-0.5-0.4-0.7-0.7c-0.2-0.3-0.3-0.6-0.4-0.9c-0.1-0.3-0.1-0.7,0-1s0.2-0.6,0.4-0.9
		c0.2-0.3,0.4-0.5,0.7-0.7c0.3-0.2,0.6-0.3,0.9-0.4c0.3-0.1,0.7-0.1,1,0c0.3,0.1,0.6,0.2,0.9,0.4c0.3,0.2,0.5,0.4,0.7,0.7
		c0.2,0.3,0.3,0.6,0.4,0.9c0.1,0.3,0.1,0.7,0,1c-0.1,0.3-0.2,0.6-0.4,0.9C466.8,23.3,466.6,23.5,466.3,23.7z M468.2,26.9
		c-0.3-0.1-0.6-0.1-0.9-0.2l0.1-0.3c0.1,0,0.3,0,0.4-0.2c0.2-0.1,0.4-0.2,0.5-0.3C468.3,26.2,468.3,26.5,468.2,26.9z M469.9,26.9
		C469.9,27,469.9,27,469.9,26.9c0-0.3,0.1-0.6,0.3-1c0.1,0.1,0.2,0.2,0.3,0.3L469.9,26.9z M471.5,25.2c-0.2-0.2-0.5-0.4-0.7-0.5
		c0,0,0,0,0,0c1.1-0.6,1.9-1.5,2.5-2.6c0.2,0.1,0.3,0.3,0.5,0.4L471.5,25.2z M479.7,21.8c-0.4,0.8-1,1.5-1.7,2.2
		c-0.7,0.7-1.5,1.3-2.5,1.8c0-0.1-0.1-0.3-0.1-0.4l0.7-1.3c0.2-0.1,0.3-0.3,0.6-0.4l1.2-0.7c0.5-0.3,0.8-0.6,1-1
		c0.1-0.2,0.2-0.4,0.3-0.7c0.1,0.1,0.3,0.3,0.5,0.4c0,0,0,0,0.1,0C479.8,21.7,479.7,21.8,479.7,21.8z M481.5,20.2l-3.3,0.4
		c0,0.1,0,0.1,0,0.2c-0.1,0.4-0.4,0.7-0.9,1l0.1-0.1c0.2-0.3,0.2-0.6,0.1-0.8c0.1,0,0.1-0.1,0.2-0.1c0.1,0,0.1-0.1,0.2-0.2l-6.7,0.8
		c-0.5,0.1-0.8-0.2-0.9-0.8c-0.1-0.3,0-0.5,0.1-0.7c0.1-0.2,0.3-0.3,0.5-0.4l10.1-2.7c0.5-0.1,0.8,0,0.9,0.5l0.4,2.1
		C482.3,19.9,482,20.1,481.5,20.2z M487.7,18.5C487.7,18.5,487.7,18.5,487.7,18.5c0,0.1-0.1,0.1-0.2,0.2c-0.1,0.1-0.2,0.3-0.2,0.4
		c0,0,0,0,0,0l-0.2-0.1c0,0,0-0.1-0.1-0.1C487.3,18.7,487.5,18.6,487.7,18.5z M483.1,20C483.1,19.9,483.2,19.9,483.1,20
		c0-0.1,0-0.1,0-0.1l0.2-0.1C483.3,19.8,483.2,19.9,483.1,20z M487.6,21.9l-0.3,0.3l-1.1-0.5c-0.2-0.1-0.4-0.1-0.6,0
		c-0.2,0.1-0.3,0.2-0.5,0.4c-0.1,0.2-0.1,0.3-0.1,0.5l-1.3-0.6c0.3-0.5,0.6-0.9,1-1.3c0.2-0.2,0.4-0.4,0.6-0.6l2,1.3
		c0.3,0.2,0.5,0.1,0.6-0.1l0.1-0.2C488,21.4,487.8,21.6,487.6,21.9z M488.1,18.5l0.7-0.1c0,0.1,0,0.3,0.1,0.5l0.1,0.2
		c-0.2-0.1-0.5-0.2-0.7-0.5C488.2,18.6,488.2,18.5,488.1,18.5z M488.5,22.7L488.5,22.7c0.4-0.4,0.6-0.8,0.7-1.2
		c0.1-0.4,0.1-0.9,0-1.3c0.1,0,0.3,0,0.4,0.1l1.7,3.7c0,0,0,0.1,0,0.1L488.5,22.7z M491.2,19.8c0.2-0.1,0.3-0.3,0.5-0.4l0.6-0.7
		c0.3,0,0.6,0,0.9,0l-1.1,3L491.2,19.8z M493.7,25.2L493.7,25.2l-0.7-1.5l0.2-0.3c0.3,0.1,0.5,0.1,0.7,0c0.1-0.1,0.2-0.2,0.4-0.3
		L493.7,25.2z M499.5,24h-1.3l2.7-5.4h0.3l0.2,0.1L499.5,24z M503.6,21.1c0.2-0.5,0.4-0.9,0.7-1.4l1,0.4l0.4,0.6
		c-1.2,0.9-2,1.8-2.2,2.9c0,0,0,0,0,0l-0.3,0.3h-0.1C503,23,503.2,22,503.6,21.1z M511.4,19.4L511.4,19.4L511.4,19.4
		C511.4,19.4,511.4,19.4,511.4,19.4z M509.6,23c-0.1,0.1-0.1,0.1-0.2,0.2l-0.3-0.4c0.1-0.1,0.1-0.5,0-1.1l1.3,0.5L509.6,23z
		 M511.1,24h-0.9c0.1-0.1,0.1-0.1,0.2-0.2l0.9-1c0.1-0.1,0.2-0.2,0.3-0.3l0.5,0.2L511.1,24z"/>
	<path d="M401.8,43.1l-1.2,1.5l0.6,0.2c-0.2-0.1-0.4-0.1-0.6-0.2l-1.2,1.5c0.1,0,0.2,0.1,0.3,0.1c1.1,0.4,2.3,0.7,3.6,0.8
		c0.9,0.1,1.7,0,2.5-0.1l-0.5-2.4L401.8,43.1z"/>
	<path d="M403.4,42.3l0.3-0.5l1.4,2.2l-0.9-4l-1.9,2.4l0.1,0.1C402.9,42.8,403.2,42.7,403.4,42.3z"/>
	<path d="M354.1,46.2c0.3,0.1,0.6,0.1,1.1,0c0.5-0.1,0.8-0.3,1-0.6c0.1-0.2,0.1-0.6,0.1-1l-2.3,1.4
		C354.1,46.2,354.1,46.2,354.1,46.2z"/>
	<path d="M361.6,43.2c0.1,0.5,0.3,0.7,0.6,0.9c0.3,0.1,0.6,0.1,1.1,0c0.5-0.1,0.8-0.3,1-0.6s0.2-0.6,0-1l-0.6-2.3l-2.5,1.5
		L361.6,43.2z"/>
	<path d="M333.7,41.1c-0.2-0.1-0.3-0.2-0.5-0.1c-0.1,0-0.3,0.1-0.4,0.4c-0.1,0.2-0.2,0.4-0.2,0.5c0,0.1,0.1,0.3,0.3,0.4
		c0.2,0.1,0.4,0.2,0.6,0.3c0,0,0,0,0,0C333.6,42,333.7,41.6,333.7,41.1z"/>
	<path d="M482.7,52.6c-0.1-0.1-0.3,0-0.5,0.1l-3.2,1.5l-6.5-13.9l3.2-1.5c0.2-0.1,0.4-0.2,0.4-0.4c0-0.1,0-0.3-0.1-0.6
		c-0.1-0.2-0.2-0.4-0.4-0.4c-0.1-0.1-0.3,0-0.5,0.1l-4,1.9c-0.2,0.1-0.4,0.2-0.4,0.4c0,0.1,0,0.3,0.1,0.6l7.1,15.2
		c0.1,0.2,0.2,0.4,0.4,0.4c0.1,0.1,0.3,0,0.5-0.1l4-1.9c0.2-0.1,0.4-0.2,0.4-0.4c0-0.1,0-0.3-0.1-0.6
		C483,52.8,482.9,52.7,482.7,52.6z"/>
	<path d="M292.9,49.9c0.3,0.1,0.6,0.2,0.9,0.2c0.3,0,0.6-0.1,0.9-0.2c0.3-0.1,0.5-0.3,0.7-0.5c0.2-0.2,0.4-0.5,0.5-0.7
		c0.1-0.3,0.2-0.6,0.2-0.9c0-0.3-0.1-0.6-0.2-0.9c-0.1-0.3-0.3-0.5-0.5-0.7c-0.2-0.2-0.5-0.4-0.7-0.5c-0.3-0.1-0.6-0.2-0.9-0.2
		c-0.3,0-0.6,0.1-0.9,0.2c-0.3,0.1-0.5,0.3-0.7,0.5c-0.2,0.2-0.4,0.5-0.5,0.7c-0.1,0.3-0.2,0.6-0.2,0.9c0,0.3,0.1,0.6,0.2,0.9
		c0.1,0.3,0.3,0.5,0.5,0.7C292.4,49.6,292.6,49.8,292.9,49.9z"/>
	<path d="M498,57.7l-5.8-2.7c-0.1-0.1-0.3-0.1-0.4,0c-0.1,0-0.2,0.1-0.3,0.3c-0.2,0.3-0.1,0.6,0.1,0.7l5.4,3.6
		c0.3,0.2,0.5,0.1,0.6-0.1l0.6-1.1C498.4,58.1,498.3,57.9,498,57.7z"/>
	<path d="M489.8,52.7c-0.1-0.2-0.3-0.3-0.5-0.4c-0.2-0.1-0.4-0.2-0.6-0.2c-0.2,0-0.4,0-0.6,0c-0.2,0.1-0.4,0.1-0.5,0.3
		c-0.2,0.1-0.3,0.3-0.4,0.5c-0.1,0.2-0.2,0.4-0.2,0.6c0,0.2,0,0.4,0,0.6s0.1,0.4,0.3,0.5c0.1,0.2,0.3,0.3,0.5,0.4
		c0.2,0.1,0.4,0.2,0.6,0.2s0.4,0,0.6,0c0.2-0.1,0.4-0.1,0.5-0.3c0.2-0.1,0.3-0.3,0.4-0.5c0.1-0.2,0.2-0.4,0.2-0.6c0-0.2,0-0.4,0-0.6
		C490.1,53,490,52.9,489.8,52.7z"/>
	<path d="M58.3,48.1l-7-2.7c-0.2-0.1-0.4-0.1-0.5,0c-0.1,0.1-0.2,0.2-0.3,0.4c-0.1,0.2-0.1,0.4-0.1,0.5c0.1,0.1,0.2,0.2,0.4,0.3
		l7,2.7c0.2,0.1,0.4,0.1,0.5,0c0.1-0.1,0.2-0.2,0.3-0.4c0.1-0.2,0.1-0.4,0.1-0.5C58.6,48.3,58.5,48.2,58.3,48.1z"/>
	<path d="M227.5,68.8c-0.1-0.3-0.2-0.4-0.5-0.4l-4.4,0.2c-0.2,0-0.4,0.1-0.4,0.2c-0.1,0.1-0.1,0.3,0,0.5c0.1,0.3,0.3,0.5,0.6,0.6
		l4.8,0.9c0.2,0,0.3,0,0.4-0.1c0.1-0.1,0.1-0.2,0.1-0.4L227.5,68.8z"/>
	<path d="M242.5,52.3h-2.2c-0.4,0-0.6,0.2-0.7,0.5l-1.3,5.7c-0.1,0.3,0,0.5,0.1,0.6c0.2,0.2,0.4,0.2,0.7,0.2c0.4,0,0.8-0.2,0.9-0.6
		l2.8-5.7c0.1-0.2,0.1-0.4,0.1-0.6C242.9,52.4,242.7,52.3,242.5,52.3z"/>
	<path d="M184.7,52.3l0.3-2.2c0.1-0.4-0.1-0.6-0.4-0.7l-3-1.1c0-0.1,0-0.2,0-0.3c0-0.3-0.1-0.5-0.3-0.6c-0.2-0.1-0.4-0.1-0.6,0
		l-0.8,0.3l-0.8-0.3c-0.3-0.1-0.5-0.1-0.7,0c-0.2,0.1-0.3,0.3-0.3,0.6c0,0.1,0,0.3,0,0.4l-2.5,1c-0.3,0.1-0.4,0.4-0.4,0.7l0.3,2.2
		c0,0.2,0.1,0.3,0.3,0.4c0.2,0,0.3,0,0.5-0.1l3.6-2.6l3.9,2.6c0.2,0.1,0.4,0.2,0.6,0.1C184.6,52.6,184.7,52.5,184.7,52.3z"/>
	<path d="M20.1,51.6l-3.7-1.9c-0.2-0.1-0.4-0.1-0.5-0.1c-0.1,0.1-0.2,0.2-0.3,0.4c-0.1,0.2-0.1,0.4-0.1,0.6c0,0.1,0.2,0.3,0.4,0.4
		l2.9,1.5l-5.9,13.9l-2.9-1.5c-0.2-0.1-0.4-0.1-0.5-0.1c-0.1,0.1-0.2,0.2-0.3,0.4C9,65.5,8.9,65.7,9,65.8c0,0.1,0.2,0.3,0.4,0.4
		l3.7,1.9c0.2,0.1,0.4,0.1,0.5,0.1c0.1-0.1,0.2-0.2,0.3-0.4l6.5-15.2c0.1-0.2,0.1-0.4,0.1-0.6S20.3,51.7,20.1,51.6z"/>
	<path d="M64.6,50.9c-0.2-0.3-0.5-0.4-0.9-0.3c-0.2,0.1-0.4,0.2-0.5,0.4c-0.1,0.2-0.1,0.4,0,0.6l2.2,4.7c0.1,0.3,0.3,0.4,0.6,0.3
		l1.8-0.5c0.2,0,0.3-0.1,0.3-0.3c0-0.2,0-0.3-0.2-0.5L64.6,50.9z"/>
	<path d="M68.8,49.7c-0.2-0.3-0.5-0.4-0.9-0.3c-0.2,0.1-0.4,0.2-0.5,0.4c-0.1,0.2-0.1,0.4,0,0.6l2.2,4.7c0.1,0.3,0.3,0.4,0.6,0.3
		l1.8-0.5c0.2,0,0.3-0.1,0.3-0.3c0-0.2,0-0.3-0.2-0.5L68.8,49.7z"/>
	<path d="M36,49.9c-0.1-0.1-0.3-0.1-0.5-0.1l-7.4,1.9l3.3-7.5c0.1-0.2,0.1-0.4,0.1-0.6c-0.1-0.2-0.2-0.3-0.4-0.4
		c-0.2-0.1-0.4-0.1-0.6-0.1c-0.1,0.1-0.3,0.2-0.4,0.4l-3.7,8.7c-0.1,0.2-0.1,0.3-0.1,0.5c0,0.1,0.1,0.3,0.2,0.4
		c0.1,0.2,0.2,0.2,0.4,0.3c0.1,0,0.3,0,0.5,0l8.6-2.1c0.2-0.1,0.4-0.2,0.5-0.3c0.1-0.1,0.1-0.4,0.1-0.6C36.2,50.2,36.1,50,36,49.9z"
		/>
	<path d="M203.6,58.3c-0.9-0.1-1.8,0.3-2.7,1.3l-1.2,1.2c-0.5,0.5-1.1,0.8-1.6,0.8c-0.5,0-1-0.3-1.5-0.9c-0.1-0.2-0.3-0.3-0.4-0.3
		c-0.1,0-0.2,0.1-0.3,0.1l-0.1-0.1l9.8-3.4c0.3-0.1,0.5-0.3,0.6-0.5c0.1-0.2,0.1-0.5,0-0.8c-0.1-0.3-0.3-0.5-0.5-0.6
		c-0.2-0.1-0.4-0.1-0.7,0l-11.3,4c-0.2,0.1-0.4,0.2-0.5,0.3c-0.1,0.1-0.2,0.3-0.2,0.6c0,0.2,0,0.4,0.1,0.6s0.2,0.3,0.4,0.4l3,1.9
		c0,0.1,0,0.2,0,0.3c0,0.5-0.3,1.1-0.9,1.6l-1.6,1.5c-0.9,0.9-1.4,1.8-1.5,2.8c0,0.9,0.3,1.9,1.1,2.8c0.1,0.2,0.3,0.3,0.4,0.3
		c0.1,0,0.3-0.1,0.5-0.3c0.2-0.2,0.3-0.3,0.3-0.5c0-0.1-0.1-0.3-0.2-0.5c-0.5-0.6-0.7-1.2-0.6-1.7c0.1-0.5,0.4-1.1,1.1-1.8l1.6-1.5
		c0.5-0.4,0.8-0.9,1-1.5c0.1-0.2,0.1-0.5,0.2-0.8l5.8,3.7c0.3,0.2,0.5,0.2,0.7,0.2c0.2,0,0.4-0.2,0.6-0.5c0.2-0.3,0.3-0.6,0.2-0.8
		c0-0.2-0.2-0.4-0.5-0.6l-5-3.1c0.4-0.2,0.7-0.4,1.1-0.7l1.2-1.2c0.7-0.6,1.2-1,1.7-1c0.5,0,1,0.3,1.5,0.9c0.1,0.2,0.3,0.3,0.4,0.3
		c0.1,0,0.3-0.1,0.5-0.3c0.2-0.2,0.3-0.3,0.3-0.5c0-0.1-0.1-0.3-0.2-0.5C205.3,58.9,204.5,58.4,203.6,58.3z"/>
	<path d="M77.4,46.2c-0.2-0.2-0.4-0.4-0.7-0.5c-0.3-0.1-0.5-0.2-0.8-0.2c-0.3,0-0.6,0.1-0.8,0.2c-0.3,0.1-0.5,0.3-0.7,0.5
		c-0.2,0.2-0.3,0.5-0.5,0.7c-0.1,0.3-0.2,0.6-0.2,0.9c0,0.3,0.1,0.6,0.2,0.9c0.1,0.3,0.3,0.5,0.5,0.7c0.2,0.2,0.4,0.4,0.7,0.5
		c0.3,0.1,0.5,0.2,0.8,0.2c0.3,0,0.6-0.1,0.8-0.2c0.3-0.1,0.5-0.3,0.7-0.5c0.2-0.2,0.3-0.5,0.5-0.7c0.1-0.3,0.2-0.6,0.2-0.9
		c0-0.3-0.1-0.6-0.2-0.9C77.7,46.6,77.6,46.4,77.4,46.2z"/>
	<path d="M193.2,63.4c0-0.1,0-0.3-0.1-0.5c-0.1-0.2-0.2-0.4-0.3-0.4s-0.3,0-0.5,0l-6.4,2.7c-0.2,0.1-0.3,0.2-0.4,0.3
		c0,0.1,0,0.3,0.1,0.5c0.1,0.2,0.2,0.4,0.3,0.4c0.1,0.1,0.3,0,0.5,0l6.4-2.7C193,63.6,193.2,63.5,193.2,63.4z"/>
	<path d="M191.9,59.7c0-0.1,0-0.3-0.1-0.5c-0.1-0.2-0.2-0.4-0.3-0.4c-0.1-0.1-0.3,0-0.5,0l-6.4,2.7c-0.2,0.1-0.3,0.2-0.4,0.3
		c0,0.1,0,0.3,0.1,0.5c0.1,0.2,0.2,0.4,0.3,0.4c0.1,0.1,0.3,0,0.5,0l6.4-2.7C191.7,59.9,191.9,59.8,191.9,59.7z"/>
	<path d="M161.7,57l-4.1-0.2c-0.2,0-0.4,0.1-0.5,0.4l-0.4,1.6c0,0.2,0,0.3,0.1,0.4c0.1,0.1,0.2,0.1,0.4,0.1l4.4-0.9
		c0.3-0.1,0.5-0.3,0.5-0.6c0.1-0.2,0-0.4,0-0.5C162,57.1,161.9,57,161.7,57z"/>
	<path d="M125.5,52.9c-0.1-0.3-0.3-0.5-0.6-0.5h-2c-0.2,0-0.3,0.1-0.4,0.2c-0.1,0.2,0,0.3,0.1,0.6l2.6,5.7c0.2,0.4,0.5,0.6,0.9,0.6
		c0.3,0,0.5-0.1,0.6-0.2c0.1-0.2,0.2-0.4,0.1-0.6L125.5,52.9z"/>
</g>
<path d="M-22.1-80.2c8.9,0,80.8,16.7,133,18.2s87.2-13.8,136-12.8s88.7,12.3,137.9,5.4c39.3-5.5,55.7-25.1,116.7-24.6
	c61.1,0.5-1-9.4-1-9.4H-24.1L-22.1-80.2z"/>
<g>
</g>
<g>
</g>
<g>
</g>
<g>
</g>
<g>
</g>
<g>
</g>
</svg>
